<?xml version="1.0" encoding="utf-8" standalone="no"?>
<!DOCTYPE svg PUBLIC "-//W3C//DTD SVG 1.1//EN"
  "http://www.w3.org/Graphics/SVG/1.1/DTD/svg11.dtd">
<!-- Created with matplotlib (https://matplotlib.org/) -->
<svg height="244.509609pt" version="1.1" viewBox="0 0 229.882812 244.509609" width="229.882812pt" xmlns="http://www.w3.org/2000/svg" xmlns:xlink="http://www.w3.org/1999/xlink">
 <defs>
  <style type="text/css">
*{stroke-linecap:butt;stroke-linejoin:round;}
  </style>
 </defs>
 <g id="figure_1">
  <g id="patch_1">
   <path d="M 0 244.509609 
L 229.882812 244.509609 
L 229.882812 0 
L 0 0 
z
" style="fill:#ffffff;"/>
  </g>
  <g id="axes_1">
   <g id="patch_2">
    <path d="M 27.382812 228.96 
L 222.682813 228.96 
L 222.682813 7.2 
L 27.382812 7.2 
z
" style="fill:#ffffff;"/>
   </g>
   <g id="patch_3">
    <path clip-path="url(#p7748ff1de7)" d="M 45.137358 934.56 
L 71.769176 934.56 
L 71.769176 120.7008 
L 45.137358 120.7008 
z
" style="fill:url(#h20a1ce5604);stroke:#ffa500;stroke-linejoin:miter;"/>
   </g>
   <g id="patch_4">
    <path clip-path="url(#p7748ff1de7)" d="M 89.523722 934.56 
L 116.15554 934.56 
L 116.15554 108.4032 
L 89.523722 108.4032 
z
" style="fill:url(#h093409cdb6);stroke:#ff0000;stroke-linejoin:miter;"/>
   </g>
   <g id="patch_5">
    <path clip-path="url(#p7748ff1de7)" d="M 133.910085 934.56 
L 160.541903 934.56 
L 160.541903 112.032 
L 133.910085 112.032 
z
" style="fill:#0000ff;stroke:#000000;stroke-linejoin:miter;"/>
   </g>
   <g id="patch_6">
    <path clip-path="url(#p7748ff1de7)" d="M 178.296449 934.56 
L 204.928267 934.56 
L 204.928267 113.2416 
L 178.296449 113.2416 
z
" style="fill:url(#h7bd31e6727);stroke:#008000;stroke-linejoin:miter;"/>
   </g>
   <g id="matplotlib.axis_1">
    <g id="xtick_1">
     <g id="line2d_1">
      <defs>
       <path d="M 0 0 
L 0 2 
" id="me4dbdd2e98" style="stroke:#000000;stroke-width:0.8;"/>
      </defs>
      <g>
       <use style="stroke:#000000;stroke-width:0.8;" x="58.453267" xlink:href="#me4dbdd2e98" y="7.2"/>
      </g>
     </g>
    </g>
    <g id="xtick_2">
     <g id="line2d_2">
      <g>
       <use style="stroke:#000000;stroke-width:0.8;" x="102.839631" xlink:href="#me4dbdd2e98" y="7.2"/>
      </g>
     </g>
    </g>
    <g id="xtick_3">
     <g id="line2d_3">
      <g>
       <use style="stroke:#000000;stroke-width:0.8;" x="147.225994" xlink:href="#me4dbdd2e98" y="7.2"/>
      </g>
     </g>
    </g>
    <g id="xtick_4">
     <g id="line2d_4">
      <g>
       <use style="stroke:#000000;stroke-width:0.8;" x="191.612358" xlink:href="#me4dbdd2e98" y="7.2"/>
      </g>
     </g>
    </g>
   </g>
   <g id="matplotlib.axis_2">
    <g id="ytick_1">
     <g id="line2d_5">
      <defs>
       <path d="M 0 0 
L 2 0 
" id="m0e898933da" style="stroke:#000000;stroke-width:0.8;"/>
      </defs>
      <g>
       <use style="stroke:#000000;stroke-width:0.8;" x="27.382812" xlink:href="#m0e898933da" y="228.96"/>
      </g>
     </g>
     <g id="line2d_6">
      <defs>
       <path d="M 0 0 
L -2 0 
" id="m823fa0cd93" style="stroke:#000000;stroke-width:0.8;"/>
      </defs>
      <g>
       <use style="stroke:#000000;stroke-width:0.8;" x="222.682813" xlink:href="#m823fa0cd93" y="228.96"/>
      </g>
     </g>
     <g id="text_1">
      <!-- 35 -->
      <defs>
       <path d="M 4.203125 18.890625 
L 12.984375 20.0625 
Q 14.5 12.59375 18.140625 9.296875 
Q 21.78125 6 27 6 
Q 33.203125 6 37.46875 10.296875 
Q 41.75 14.59375 41.75 20.953125 
Q 41.75 27 37.796875 30.921875 
Q 33.84375 34.859375 27.734375 34.859375 
Q 25.25 34.859375 21.53125 33.890625 
L 22.515625 41.609375 
Q 23.390625 41.5 23.921875 41.5 
Q 29.546875 41.5 34.03125 44.421875 
Q 38.53125 47.359375 38.53125 53.46875 
Q 38.53125 58.296875 35.25 61.46875 
Q 31.984375 64.65625 26.8125 64.65625 
Q 21.6875 64.65625 18.265625 61.421875 
Q 14.84375 58.203125 13.875 51.765625 
L 5.078125 53.328125 
Q 6.6875 62.15625 12.390625 67.015625 
Q 18.109375 71.875 26.609375 71.875 
Q 32.46875 71.875 37.390625 69.359375 
Q 42.328125 66.84375 44.9375 62.5 
Q 47.5625 58.15625 47.5625 53.265625 
Q 47.5625 48.640625 45.0625 44.828125 
Q 42.578125 41.015625 37.703125 38.765625 
Q 44.046875 37.3125 47.5625 32.6875 
Q 51.078125 28.078125 51.078125 21.140625 
Q 51.078125 11.765625 44.234375 5.25 
Q 37.40625 -1.265625 26.953125 -1.265625 
Q 17.53125 -1.265625 11.296875 4.34375 
Q 5.078125 9.96875 4.203125 18.890625 
z
" id="ArialMT-51"/>
       <path d="M 4.15625 18.75 
L 13.375 19.53125 
Q 14.40625 12.796875 18.140625 9.390625 
Q 21.875 6 27.15625 6 
Q 33.5 6 37.890625 10.78125 
Q 42.28125 15.578125 42.28125 23.484375 
Q 42.28125 31 38.0625 35.34375 
Q 33.84375 39.703125 27 39.703125 
Q 22.75 39.703125 19.328125 37.765625 
Q 15.921875 35.84375 13.96875 32.765625 
L 5.71875 33.84375 
L 12.640625 70.609375 
L 48.25 70.609375 
L 48.25 62.203125 
L 19.671875 62.203125 
L 15.828125 42.96875 
Q 22.265625 47.46875 29.34375 47.46875 
Q 38.71875 47.46875 45.15625 40.96875 
Q 51.609375 34.46875 51.609375 24.265625 
Q 51.609375 14.546875 45.953125 7.46875 
Q 39.0625 -1.21875 27.15625 -1.21875 
Q 17.390625 -1.21875 11.203125 4.25 
Q 5.03125 9.71875 4.15625 18.75 
z
" id="ArialMT-53"/>
      </defs>
      <g transform="translate(7.2 234.328359)scale(0.15 -0.15)">
       <use xlink:href="#ArialMT-51"/>
       <use x="55.615234" xlink:href="#ArialMT-53"/>
      </g>
     </g>
    </g>
    <g id="ytick_2">
     <g id="line2d_7">
      <g>
       <use style="stroke:#000000;stroke-width:0.8;" x="27.382812" xlink:href="#m0e898933da" y="128.16"/>
      </g>
     </g>
     <g id="line2d_8">
      <g>
       <use style="stroke:#000000;stroke-width:0.8;" x="222.682813" xlink:href="#m823fa0cd93" y="128.16"/>
      </g>
     </g>
     <g id="text_2">
      <!-- 40 -->
      <defs>
       <path d="M 32.328125 0 
L 32.328125 17.140625 
L 1.265625 17.140625 
L 1.265625 25.203125 
L 33.9375 71.578125 
L 41.109375 71.578125 
L 41.109375 25.203125 
L 50.78125 25.203125 
L 50.78125 17.140625 
L 41.109375 17.140625 
L 41.109375 0 
z
M 32.328125 25.203125 
L 32.328125 57.46875 
L 9.90625 25.203125 
z
" id="ArialMT-52"/>
       <path d="M 4.15625 35.296875 
Q 4.15625 48 6.765625 55.734375 
Q 9.375 63.484375 14.515625 67.671875 
Q 19.671875 71.875 27.484375 71.875 
Q 33.25 71.875 37.59375 69.546875 
Q 41.9375 67.234375 44.765625 62.859375 
Q 47.609375 58.5 49.21875 52.21875 
Q 50.828125 45.953125 50.828125 35.296875 
Q 50.828125 22.703125 48.234375 14.96875 
Q 45.65625 7.234375 40.5 3 
Q 35.359375 -1.21875 27.484375 -1.21875 
Q 17.140625 -1.21875 11.234375 6.203125 
Q 4.15625 15.140625 4.15625 35.296875 
z
M 13.1875 35.296875 
Q 13.1875 17.671875 17.3125 11.828125 
Q 21.4375 6 27.484375 6 
Q 33.546875 6 37.671875 11.859375 
Q 41.796875 17.71875 41.796875 35.296875 
Q 41.796875 52.984375 37.671875 58.78125 
Q 33.546875 64.59375 27.390625 64.59375 
Q 21.34375 64.59375 17.71875 59.46875 
Q 13.1875 52.9375 13.1875 35.296875 
z
" id="ArialMT-48"/>
      </defs>
      <g transform="translate(7.2 133.528359)scale(0.15 -0.15)">
       <use xlink:href="#ArialMT-52"/>
       <use x="55.615234" xlink:href="#ArialMT-48"/>
      </g>
     </g>
    </g>
    <g id="ytick_3">
     <g id="line2d_9">
      <g>
       <use style="stroke:#000000;stroke-width:0.8;" x="27.382812" xlink:href="#m0e898933da" y="27.36"/>
      </g>
     </g>
     <g id="line2d_10">
      <g>
       <use style="stroke:#000000;stroke-width:0.8;" x="222.682813" xlink:href="#m823fa0cd93" y="27.36"/>
      </g>
     </g>
     <g id="text_3">
      <!-- 45 -->
      <g transform="translate(7.2 32.728359)scale(0.15 -0.15)">
       <use xlink:href="#ArialMT-52"/>
       <use x="55.615234" xlink:href="#ArialMT-53"/>
      </g>
     </g>
    </g>
   </g>
   <g id="patch_7">
    <path d="M 27.382812 228.96 
L 27.382812 7.2 
" style="fill:none;stroke:#000000;stroke-linecap:square;stroke-linejoin:miter;stroke-width:0.8;"/>
   </g>
   <g id="patch_8">
    <path d="M 222.682813 228.96 
L 222.682813 7.2 
" style="fill:none;stroke:#000000;stroke-linecap:square;stroke-linejoin:miter;stroke-width:0.8;"/>
   </g>
   <g id="patch_9">
    <path d="M 27.382812 228.96 
L 222.682813 228.96 
" style="fill:none;stroke:#000000;stroke-linecap:square;stroke-linejoin:miter;stroke-width:0.8;"/>
   </g>
   <g id="patch_10">
    <path d="M 27.382812 7.2 
L 222.682813 7.2 
" style="fill:none;stroke:#000000;stroke-linecap:square;stroke-linejoin:miter;stroke-width:0.8;"/>
   </g>
  </g>
 </g>
 <defs>
  <clipPath id="p7748ff1de7">
   <rect height="221.76" width="195.3" x="27.382812" y="7.2"/>
  </clipPath>
 </defs>
 <defs>
  <pattern height="72" id="h20a1ce5604" patternUnits="userSpaceOnUse" width="72" x="0" y="0">
   <rect fill="#ffffff" height="73" width="73" x="0" y="0"/>
   <path d="M -36 36 
L 36 -36 
M -32 40 
L 40 -32 
M -28 44 
L 44 -28 
M -24 48 
L 48 -24 
M -20 52 
L 52 -20 
M -16 56 
L 56 -16 
M -12 60 
L 60 -12 
M -8 64 
L 64 -8 
M -4 68 
L 68 -4 
M 0 72 
L 72 0 
M 4 76 
L 76 4 
M 8 80 
L 80 8 
M 12 84 
L 84 12 
M 16 88 
L 88 16 
M 20 92 
L 92 20 
M 24 96 
L 96 24 
M 28 100 
L 100 28 
M 32 104 
L 104 32 
M 36 108 
L 108 36 
M -36 36 
L 36 108 
M -32 32 
L 40 104 
M -28 28 
L 44 100 
M -24 24 
L 48 96 
M -20 20 
L 52 92 
M -16 16 
L 56 88 
M -12 12 
L 60 84 
M -8 8 
L 64 80 
M -4 4 
L 68 76 
M 0 0 
L 72 72 
M 4 -4 
L 76 68 
M 8 -8 
L 80 64 
M 12 -12 
L 84 60 
M 16 -16 
L 88 56 
M 20 -20 
L 92 52 
M 24 -24 
L 96 48 
M 28 -28 
L 100 44 
M 32 -32 
L 104 40 
M 36 -36 
L 108 36 
" style="fill:#ffa500;stroke:#ffa500;stroke-linecap:butt;stroke-linejoin:miter;stroke-width:1.0;"/>
  </pattern>
  <pattern height="72" id="h093409cdb6" patternUnits="userSpaceOnUse" width="72" x="0" y="0">
   <rect fill="#ffffff" height="73" width="73" x="0" y="0"/>
   <path d="M 0 70.666667 
L -0.391857 71.460655 
L -1.268075 71.587977 
L -0.634038 72.206011 
L -0.783714 73.078689 
L -0 72.666667 
L 0.783714 73.078689 
L 0.634038 72.206011 
L 1.268075 71.587977 
L 0.391857 71.460655 
L 0 70.666667 
M 4 70.666667 
L 3.608143 71.460655 
L 2.731925 71.587977 
L 3.365962 72.206011 
L 3.216286 73.078689 
L 4 72.666667 
L 4.783714 73.078689 
L 4.634038 72.206011 
L 5.268075 71.587977 
L 4.391857 71.460655 
L 4 70.666667 
M 8 70.666667 
L 7.608143 71.460655 
L 6.731925 71.587977 
L 7.365962 72.206011 
L 7.216286 73.078689 
L 8 72.666667 
L 8.783714 73.078689 
L 8.634038 72.206011 
L 9.268075 71.587977 
L 8.391857 71.460655 
L 8 70.666667 
M 12 70.666667 
L 11.608143 71.460655 
L 10.731925 71.587977 
L 11.365962 72.206011 
L 11.216286 73.078689 
L 12 72.666667 
L 12.783714 73.078689 
L 12.634038 72.206011 
L 13.268075 71.587977 
L 12.391857 71.460655 
L 12 70.666667 
M 16 70.666667 
L 15.608143 71.460655 
L 14.731925 71.587977 
L 15.365962 72.206011 
L 15.216286 73.078689 
L 16 72.666667 
L 16.783714 73.078689 
L 16.634038 72.206011 
L 17.268075 71.587977 
L 16.391857 71.460655 
L 16 70.666667 
M 20 70.666667 
L 19.608143 71.460655 
L 18.731925 71.587977 
L 19.365962 72.206011 
L 19.216286 73.078689 
L 20 72.666667 
L 20.783714 73.078689 
L 20.634038 72.206011 
L 21.268075 71.587977 
L 20.391857 71.460655 
L 20 70.666667 
M 24 70.666667 
L 23.608143 71.460655 
L 22.731925 71.587977 
L 23.365962 72.206011 
L 23.216286 73.078689 
L 24 72.666667 
L 24.783714 73.078689 
L 24.634038 72.206011 
L 25.268075 71.587977 
L 24.391857 71.460655 
L 24 70.666667 
M 28 70.666667 
L 27.608143 71.460655 
L 26.731925 71.587977 
L 27.365962 72.206011 
L 27.216286 73.078689 
L 28 72.666667 
L 28.783714 73.078689 
L 28.634038 72.206011 
L 29.268075 71.587977 
L 28.391857 71.460655 
L 28 70.666667 
M 32 70.666667 
L 31.608143 71.460655 
L 30.731925 71.587977 
L 31.365962 72.206011 
L 31.216286 73.078689 
L 32 72.666667 
L 32.783714 73.078689 
L 32.634038 72.206011 
L 33.268075 71.587977 
L 32.391857 71.460655 
L 32 70.666667 
M 36 70.666667 
L 35.608143 71.460655 
L 34.731925 71.587977 
L 35.365962 72.206011 
L 35.216286 73.078689 
L 36 72.666667 
L 36.783714 73.078689 
L 36.634038 72.206011 
L 37.268075 71.587977 
L 36.391857 71.460655 
L 36 70.666667 
M 40 70.666667 
L 39.608143 71.460655 
L 38.731925 71.587977 
L 39.365962 72.206011 
L 39.216286 73.078689 
L 40 72.666667 
L 40.783714 73.078689 
L 40.634038 72.206011 
L 41.268075 71.587977 
L 40.391857 71.460655 
L 40 70.666667 
M 44 70.666667 
L 43.608143 71.460655 
L 42.731925 71.587977 
L 43.365962 72.206011 
L 43.216286 73.078689 
L 44 72.666667 
L 44.783714 73.078689 
L 44.634038 72.206011 
L 45.268075 71.587977 
L 44.391857 71.460655 
L 44 70.666667 
M 48 70.666667 
L 47.608143 71.460655 
L 46.731925 71.587977 
L 47.365962 72.206011 
L 47.216286 73.078689 
L 48 72.666667 
L 48.783714 73.078689 
L 48.634038 72.206011 
L 49.268075 71.587977 
L 48.391857 71.460655 
L 48 70.666667 
M 52 70.666667 
L 51.608143 71.460655 
L 50.731925 71.587977 
L 51.365962 72.206011 
L 51.216286 73.078689 
L 52 72.666667 
L 52.783714 73.078689 
L 52.634038 72.206011 
L 53.268075 71.587977 
L 52.391857 71.460655 
L 52 70.666667 
M 56 70.666667 
L 55.608143 71.460655 
L 54.731925 71.587977 
L 55.365962 72.206011 
L 55.216286 73.078689 
L 56 72.666667 
L 56.783714 73.078689 
L 56.634038 72.206011 
L 57.268075 71.587977 
L 56.391857 71.460655 
L 56 70.666667 
M 60 70.666667 
L 59.608143 71.460655 
L 58.731925 71.587977 
L 59.365962 72.206011 
L 59.216286 73.078689 
L 60 72.666667 
L 60.783714 73.078689 
L 60.634038 72.206011 
L 61.268075 71.587977 
L 60.391857 71.460655 
L 60 70.666667 
M 64 70.666667 
L 63.608143 71.460655 
L 62.731925 71.587977 
L 63.365962 72.206011 
L 63.216286 73.078689 
L 64 72.666667 
L 64.783714 73.078689 
L 64.634038 72.206011 
L 65.268075 71.587977 
L 64.391857 71.460655 
L 64 70.666667 
M 68 70.666667 
L 67.608143 71.460655 
L 66.731925 71.587977 
L 67.365962 72.206011 
L 67.216286 73.078689 
L 68 72.666667 
L 68.783714 73.078689 
L 68.634038 72.206011 
L 69.268075 71.587977 
L 68.391857 71.460655 
L 68 70.666667 
M 72 70.666667 
L 71.608143 71.460655 
L 70.731925 71.587977 
L 71.365962 72.206011 
L 71.216286 73.078689 
L 72 72.666667 
L 72.783714 73.078689 
L 72.634038 72.206011 
L 73.268075 71.587977 
L 72.391857 71.460655 
L 72 70.666667 
M 2 66.666667 
L 1.608143 67.460655 
L 0.731925 67.587977 
L 1.365962 68.206011 
L 1.216286 69.078689 
L 2 68.666667 
L 2.783714 69.078689 
L 2.634038 68.206011 
L 3.268075 67.587977 
L 2.391857 67.460655 
L 2 66.666667 
M 6 66.666667 
L 5.608143 67.460655 
L 4.731925 67.587977 
L 5.365962 68.206011 
L 5.216286 69.078689 
L 6 68.666667 
L 6.783714 69.078689 
L 6.634038 68.206011 
L 7.268075 67.587977 
L 6.391857 67.460655 
L 6 66.666667 
M 10 66.666667 
L 9.608143 67.460655 
L 8.731925 67.587977 
L 9.365962 68.206011 
L 9.216286 69.078689 
L 10 68.666667 
L 10.783714 69.078689 
L 10.634038 68.206011 
L 11.268075 67.587977 
L 10.391857 67.460655 
L 10 66.666667 
M 14 66.666667 
L 13.608143 67.460655 
L 12.731925 67.587977 
L 13.365962 68.206011 
L 13.216286 69.078689 
L 14 68.666667 
L 14.783714 69.078689 
L 14.634038 68.206011 
L 15.268075 67.587977 
L 14.391857 67.460655 
L 14 66.666667 
M 18 66.666667 
L 17.608143 67.460655 
L 16.731925 67.587977 
L 17.365962 68.206011 
L 17.216286 69.078689 
L 18 68.666667 
L 18.783714 69.078689 
L 18.634038 68.206011 
L 19.268075 67.587977 
L 18.391857 67.460655 
L 18 66.666667 
M 22 66.666667 
L 21.608143 67.460655 
L 20.731925 67.587977 
L 21.365962 68.206011 
L 21.216286 69.078689 
L 22 68.666667 
L 22.783714 69.078689 
L 22.634038 68.206011 
L 23.268075 67.587977 
L 22.391857 67.460655 
L 22 66.666667 
M 26 66.666667 
L 25.608143 67.460655 
L 24.731925 67.587977 
L 25.365962 68.206011 
L 25.216286 69.078689 
L 26 68.666667 
L 26.783714 69.078689 
L 26.634038 68.206011 
L 27.268075 67.587977 
L 26.391857 67.460655 
L 26 66.666667 
M 30 66.666667 
L 29.608143 67.460655 
L 28.731925 67.587977 
L 29.365962 68.206011 
L 29.216286 69.078689 
L 30 68.666667 
L 30.783714 69.078689 
L 30.634038 68.206011 
L 31.268075 67.587977 
L 30.391857 67.460655 
L 30 66.666667 
M 34 66.666667 
L 33.608143 67.460655 
L 32.731925 67.587977 
L 33.365962 68.206011 
L 33.216286 69.078689 
L 34 68.666667 
L 34.783714 69.078689 
L 34.634038 68.206011 
L 35.268075 67.587977 
L 34.391857 67.460655 
L 34 66.666667 
M 38 66.666667 
L 37.608143 67.460655 
L 36.731925 67.587977 
L 37.365962 68.206011 
L 37.216286 69.078689 
L 38 68.666667 
L 38.783714 69.078689 
L 38.634038 68.206011 
L 39.268075 67.587977 
L 38.391857 67.460655 
L 38 66.666667 
M 42 66.666667 
L 41.608143 67.460655 
L 40.731925 67.587977 
L 41.365962 68.206011 
L 41.216286 69.078689 
L 42 68.666667 
L 42.783714 69.078689 
L 42.634038 68.206011 
L 43.268075 67.587977 
L 42.391857 67.460655 
L 42 66.666667 
M 46 66.666667 
L 45.608143 67.460655 
L 44.731925 67.587977 
L 45.365962 68.206011 
L 45.216286 69.078689 
L 46 68.666667 
L 46.783714 69.078689 
L 46.634038 68.206011 
L 47.268075 67.587977 
L 46.391857 67.460655 
L 46 66.666667 
M 50 66.666667 
L 49.608143 67.460655 
L 48.731925 67.587977 
L 49.365962 68.206011 
L 49.216286 69.078689 
L 50 68.666667 
L 50.783714 69.078689 
L 50.634038 68.206011 
L 51.268075 67.587977 
L 50.391857 67.460655 
L 50 66.666667 
M 54 66.666667 
L 53.608143 67.460655 
L 52.731925 67.587977 
L 53.365962 68.206011 
L 53.216286 69.078689 
L 54 68.666667 
L 54.783714 69.078689 
L 54.634038 68.206011 
L 55.268075 67.587977 
L 54.391857 67.460655 
L 54 66.666667 
M 58 66.666667 
L 57.608143 67.460655 
L 56.731925 67.587977 
L 57.365962 68.206011 
L 57.216286 69.078689 
L 58 68.666667 
L 58.783714 69.078689 
L 58.634038 68.206011 
L 59.268075 67.587977 
L 58.391857 67.460655 
L 58 66.666667 
M 62 66.666667 
L 61.608143 67.460655 
L 60.731925 67.587977 
L 61.365962 68.206011 
L 61.216286 69.078689 
L 62 68.666667 
L 62.783714 69.078689 
L 62.634038 68.206011 
L 63.268075 67.587977 
L 62.391857 67.460655 
L 62 66.666667 
M 66 66.666667 
L 65.608143 67.460655 
L 64.731925 67.587977 
L 65.365962 68.206011 
L 65.216286 69.078689 
L 66 68.666667 
L 66.783714 69.078689 
L 66.634038 68.206011 
L 67.268075 67.587977 
L 66.391857 67.460655 
L 66 66.666667 
M 70 66.666667 
L 69.608143 67.460655 
L 68.731925 67.587977 
L 69.365962 68.206011 
L 69.216286 69.078689 
L 70 68.666667 
L 70.783714 69.078689 
L 70.634038 68.206011 
L 71.268075 67.587977 
L 70.391857 67.460655 
L 70 66.666667 
M 0 62.666667 
L -0.391857 63.460655 
L -1.268075 63.587977 
L -0.634038 64.206011 
L -0.783714 65.078689 
L -0 64.666667 
L 0.783714 65.078689 
L 0.634038 64.206011 
L 1.268075 63.587977 
L 0.391857 63.460655 
L 0 62.666667 
M 4 62.666667 
L 3.608143 63.460655 
L 2.731925 63.587977 
L 3.365962 64.206011 
L 3.216286 65.078689 
L 4 64.666667 
L 4.783714 65.078689 
L 4.634038 64.206011 
L 5.268075 63.587977 
L 4.391857 63.460655 
L 4 62.666667 
M 8 62.666667 
L 7.608143 63.460655 
L 6.731925 63.587977 
L 7.365962 64.206011 
L 7.216286 65.078689 
L 8 64.666667 
L 8.783714 65.078689 
L 8.634038 64.206011 
L 9.268075 63.587977 
L 8.391857 63.460655 
L 8 62.666667 
M 12 62.666667 
L 11.608143 63.460655 
L 10.731925 63.587977 
L 11.365962 64.206011 
L 11.216286 65.078689 
L 12 64.666667 
L 12.783714 65.078689 
L 12.634038 64.206011 
L 13.268075 63.587977 
L 12.391857 63.460655 
L 12 62.666667 
M 16 62.666667 
L 15.608143 63.460655 
L 14.731925 63.587977 
L 15.365962 64.206011 
L 15.216286 65.078689 
L 16 64.666667 
L 16.783714 65.078689 
L 16.634038 64.206011 
L 17.268075 63.587977 
L 16.391857 63.460655 
L 16 62.666667 
M 20 62.666667 
L 19.608143 63.460655 
L 18.731925 63.587977 
L 19.365962 64.206011 
L 19.216286 65.078689 
L 20 64.666667 
L 20.783714 65.078689 
L 20.634038 64.206011 
L 21.268075 63.587977 
L 20.391857 63.460655 
L 20 62.666667 
M 24 62.666667 
L 23.608143 63.460655 
L 22.731925 63.587977 
L 23.365962 64.206011 
L 23.216286 65.078689 
L 24 64.666667 
L 24.783714 65.078689 
L 24.634038 64.206011 
L 25.268075 63.587977 
L 24.391857 63.460655 
L 24 62.666667 
M 28 62.666667 
L 27.608143 63.460655 
L 26.731925 63.587977 
L 27.365962 64.206011 
L 27.216286 65.078689 
L 28 64.666667 
L 28.783714 65.078689 
L 28.634038 64.206011 
L 29.268075 63.587977 
L 28.391857 63.460655 
L 28 62.666667 
M 32 62.666667 
L 31.608143 63.460655 
L 30.731925 63.587977 
L 31.365962 64.206011 
L 31.216286 65.078689 
L 32 64.666667 
L 32.783714 65.078689 
L 32.634038 64.206011 
L 33.268075 63.587977 
L 32.391857 63.460655 
L 32 62.666667 
M 36 62.666667 
L 35.608143 63.460655 
L 34.731925 63.587977 
L 35.365962 64.206011 
L 35.216286 65.078689 
L 36 64.666667 
L 36.783714 65.078689 
L 36.634038 64.206011 
L 37.268075 63.587977 
L 36.391857 63.460655 
L 36 62.666667 
M 40 62.666667 
L 39.608143 63.460655 
L 38.731925 63.587977 
L 39.365962 64.206011 
L 39.216286 65.078689 
L 40 64.666667 
L 40.783714 65.078689 
L 40.634038 64.206011 
L 41.268075 63.587977 
L 40.391857 63.460655 
L 40 62.666667 
M 44 62.666667 
L 43.608143 63.460655 
L 42.731925 63.587977 
L 43.365962 64.206011 
L 43.216286 65.078689 
L 44 64.666667 
L 44.783714 65.078689 
L 44.634038 64.206011 
L 45.268075 63.587977 
L 44.391857 63.460655 
L 44 62.666667 
M 48 62.666667 
L 47.608143 63.460655 
L 46.731925 63.587977 
L 47.365962 64.206011 
L 47.216286 65.078689 
L 48 64.666667 
L 48.783714 65.078689 
L 48.634038 64.206011 
L 49.268075 63.587977 
L 48.391857 63.460655 
L 48 62.666667 
M 52 62.666667 
L 51.608143 63.460655 
L 50.731925 63.587977 
L 51.365962 64.206011 
L 51.216286 65.078689 
L 52 64.666667 
L 52.783714 65.078689 
L 52.634038 64.206011 
L 53.268075 63.587977 
L 52.391857 63.460655 
L 52 62.666667 
M 56 62.666667 
L 55.608143 63.460655 
L 54.731925 63.587977 
L 55.365962 64.206011 
L 55.216286 65.078689 
L 56 64.666667 
L 56.783714 65.078689 
L 56.634038 64.206011 
L 57.268075 63.587977 
L 56.391857 63.460655 
L 56 62.666667 
M 60 62.666667 
L 59.608143 63.460655 
L 58.731925 63.587977 
L 59.365962 64.206011 
L 59.216286 65.078689 
L 60 64.666667 
L 60.783714 65.078689 
L 60.634038 64.206011 
L 61.268075 63.587977 
L 60.391857 63.460655 
L 60 62.666667 
M 64 62.666667 
L 63.608143 63.460655 
L 62.731925 63.587977 
L 63.365962 64.206011 
L 63.216286 65.078689 
L 64 64.666667 
L 64.783714 65.078689 
L 64.634038 64.206011 
L 65.268075 63.587977 
L 64.391857 63.460655 
L 64 62.666667 
M 68 62.666667 
L 67.608143 63.460655 
L 66.731925 63.587977 
L 67.365962 64.206011 
L 67.216286 65.078689 
L 68 64.666667 
L 68.783714 65.078689 
L 68.634038 64.206011 
L 69.268075 63.587977 
L 68.391857 63.460655 
L 68 62.666667 
M 72 62.666667 
L 71.608143 63.460655 
L 70.731925 63.587977 
L 71.365962 64.206011 
L 71.216286 65.078689 
L 72 64.666667 
L 72.783714 65.078689 
L 72.634038 64.206011 
L 73.268075 63.587977 
L 72.391857 63.460655 
L 72 62.666667 
M 2 58.666667 
L 1.608143 59.460655 
L 0.731925 59.587977 
L 1.365962 60.206011 
L 1.216286 61.078689 
L 2 60.666667 
L 2.783714 61.078689 
L 2.634038 60.206011 
L 3.268075 59.587977 
L 2.391857 59.460655 
L 2 58.666667 
M 6 58.666667 
L 5.608143 59.460655 
L 4.731925 59.587977 
L 5.365962 60.206011 
L 5.216286 61.078689 
L 6 60.666667 
L 6.783714 61.078689 
L 6.634038 60.206011 
L 7.268075 59.587977 
L 6.391857 59.460655 
L 6 58.666667 
M 10 58.666667 
L 9.608143 59.460655 
L 8.731925 59.587977 
L 9.365962 60.206011 
L 9.216286 61.078689 
L 10 60.666667 
L 10.783714 61.078689 
L 10.634038 60.206011 
L 11.268075 59.587977 
L 10.391857 59.460655 
L 10 58.666667 
M 14 58.666667 
L 13.608143 59.460655 
L 12.731925 59.587977 
L 13.365962 60.206011 
L 13.216286 61.078689 
L 14 60.666667 
L 14.783714 61.078689 
L 14.634038 60.206011 
L 15.268075 59.587977 
L 14.391857 59.460655 
L 14 58.666667 
M 18 58.666667 
L 17.608143 59.460655 
L 16.731925 59.587977 
L 17.365962 60.206011 
L 17.216286 61.078689 
L 18 60.666667 
L 18.783714 61.078689 
L 18.634038 60.206011 
L 19.268075 59.587977 
L 18.391857 59.460655 
L 18 58.666667 
M 22 58.666667 
L 21.608143 59.460655 
L 20.731925 59.587977 
L 21.365962 60.206011 
L 21.216286 61.078689 
L 22 60.666667 
L 22.783714 61.078689 
L 22.634038 60.206011 
L 23.268075 59.587977 
L 22.391857 59.460655 
L 22 58.666667 
M 26 58.666667 
L 25.608143 59.460655 
L 24.731925 59.587977 
L 25.365962 60.206011 
L 25.216286 61.078689 
L 26 60.666667 
L 26.783714 61.078689 
L 26.634038 60.206011 
L 27.268075 59.587977 
L 26.391857 59.460655 
L 26 58.666667 
M 30 58.666667 
L 29.608143 59.460655 
L 28.731925 59.587977 
L 29.365962 60.206011 
L 29.216286 61.078689 
L 30 60.666667 
L 30.783714 61.078689 
L 30.634038 60.206011 
L 31.268075 59.587977 
L 30.391857 59.460655 
L 30 58.666667 
M 34 58.666667 
L 33.608143 59.460655 
L 32.731925 59.587977 
L 33.365962 60.206011 
L 33.216286 61.078689 
L 34 60.666667 
L 34.783714 61.078689 
L 34.634038 60.206011 
L 35.268075 59.587977 
L 34.391857 59.460655 
L 34 58.666667 
M 38 58.666667 
L 37.608143 59.460655 
L 36.731925 59.587977 
L 37.365962 60.206011 
L 37.216286 61.078689 
L 38 60.666667 
L 38.783714 61.078689 
L 38.634038 60.206011 
L 39.268075 59.587977 
L 38.391857 59.460655 
L 38 58.666667 
M 42 58.666667 
L 41.608143 59.460655 
L 40.731925 59.587977 
L 41.365962 60.206011 
L 41.216286 61.078689 
L 42 60.666667 
L 42.783714 61.078689 
L 42.634038 60.206011 
L 43.268075 59.587977 
L 42.391857 59.460655 
L 42 58.666667 
M 46 58.666667 
L 45.608143 59.460655 
L 44.731925 59.587977 
L 45.365962 60.206011 
L 45.216286 61.078689 
L 46 60.666667 
L 46.783714 61.078689 
L 46.634038 60.206011 
L 47.268075 59.587977 
L 46.391857 59.460655 
L 46 58.666667 
M 50 58.666667 
L 49.608143 59.460655 
L 48.731925 59.587977 
L 49.365962 60.206011 
L 49.216286 61.078689 
L 50 60.666667 
L 50.783714 61.078689 
L 50.634038 60.206011 
L 51.268075 59.587977 
L 50.391857 59.460655 
L 50 58.666667 
M 54 58.666667 
L 53.608143 59.460655 
L 52.731925 59.587977 
L 53.365962 60.206011 
L 53.216286 61.078689 
L 54 60.666667 
L 54.783714 61.078689 
L 54.634038 60.206011 
L 55.268075 59.587977 
L 54.391857 59.460655 
L 54 58.666667 
M 58 58.666667 
L 57.608143 59.460655 
L 56.731925 59.587977 
L 57.365962 60.206011 
L 57.216286 61.078689 
L 58 60.666667 
L 58.783714 61.078689 
L 58.634038 60.206011 
L 59.268075 59.587977 
L 58.391857 59.460655 
L 58 58.666667 
M 62 58.666667 
L 61.608143 59.460655 
L 60.731925 59.587977 
L 61.365962 60.206011 
L 61.216286 61.078689 
L 62 60.666667 
L 62.783714 61.078689 
L 62.634038 60.206011 
L 63.268075 59.587977 
L 62.391857 59.460655 
L 62 58.666667 
M 66 58.666667 
L 65.608143 59.460655 
L 64.731925 59.587977 
L 65.365962 60.206011 
L 65.216286 61.078689 
L 66 60.666667 
L 66.783714 61.078689 
L 66.634038 60.206011 
L 67.268075 59.587977 
L 66.391857 59.460655 
L 66 58.666667 
M 70 58.666667 
L 69.608143 59.460655 
L 68.731925 59.587977 
L 69.365962 60.206011 
L 69.216286 61.078689 
L 70 60.666667 
L 70.783714 61.078689 
L 70.634038 60.206011 
L 71.268075 59.587977 
L 70.391857 59.460655 
L 70 58.666667 
M 0 54.666667 
L -0.391857 55.460655 
L -1.268075 55.587977 
L -0.634038 56.206011 
L -0.783714 57.078689 
L -0 56.666667 
L 0.783714 57.078689 
L 0.634038 56.206011 
L 1.268075 55.587977 
L 0.391857 55.460655 
L 0 54.666667 
M 4 54.666667 
L 3.608143 55.460655 
L 2.731925 55.587977 
L 3.365962 56.206011 
L 3.216286 57.078689 
L 4 56.666667 
L 4.783714 57.078689 
L 4.634038 56.206011 
L 5.268075 55.587977 
L 4.391857 55.460655 
L 4 54.666667 
M 8 54.666667 
L 7.608143 55.460655 
L 6.731925 55.587977 
L 7.365962 56.206011 
L 7.216286 57.078689 
L 8 56.666667 
L 8.783714 57.078689 
L 8.634038 56.206011 
L 9.268075 55.587977 
L 8.391857 55.460655 
L 8 54.666667 
M 12 54.666667 
L 11.608143 55.460655 
L 10.731925 55.587977 
L 11.365962 56.206011 
L 11.216286 57.078689 
L 12 56.666667 
L 12.783714 57.078689 
L 12.634038 56.206011 
L 13.268075 55.587977 
L 12.391857 55.460655 
L 12 54.666667 
M 16 54.666667 
L 15.608143 55.460655 
L 14.731925 55.587977 
L 15.365962 56.206011 
L 15.216286 57.078689 
L 16 56.666667 
L 16.783714 57.078689 
L 16.634038 56.206011 
L 17.268075 55.587977 
L 16.391857 55.460655 
L 16 54.666667 
M 20 54.666667 
L 19.608143 55.460655 
L 18.731925 55.587977 
L 19.365962 56.206011 
L 19.216286 57.078689 
L 20 56.666667 
L 20.783714 57.078689 
L 20.634038 56.206011 
L 21.268075 55.587977 
L 20.391857 55.460655 
L 20 54.666667 
M 24 54.666667 
L 23.608143 55.460655 
L 22.731925 55.587977 
L 23.365962 56.206011 
L 23.216286 57.078689 
L 24 56.666667 
L 24.783714 57.078689 
L 24.634038 56.206011 
L 25.268075 55.587977 
L 24.391857 55.460655 
L 24 54.666667 
M 28 54.666667 
L 27.608143 55.460655 
L 26.731925 55.587977 
L 27.365962 56.206011 
L 27.216286 57.078689 
L 28 56.666667 
L 28.783714 57.078689 
L 28.634038 56.206011 
L 29.268075 55.587977 
L 28.391857 55.460655 
L 28 54.666667 
M 32 54.666667 
L 31.608143 55.460655 
L 30.731925 55.587977 
L 31.365962 56.206011 
L 31.216286 57.078689 
L 32 56.666667 
L 32.783714 57.078689 
L 32.634038 56.206011 
L 33.268075 55.587977 
L 32.391857 55.460655 
L 32 54.666667 
M 36 54.666667 
L 35.608143 55.460655 
L 34.731925 55.587977 
L 35.365962 56.206011 
L 35.216286 57.078689 
L 36 56.666667 
L 36.783714 57.078689 
L 36.634038 56.206011 
L 37.268075 55.587977 
L 36.391857 55.460655 
L 36 54.666667 
M 40 54.666667 
L 39.608143 55.460655 
L 38.731925 55.587977 
L 39.365962 56.206011 
L 39.216286 57.078689 
L 40 56.666667 
L 40.783714 57.078689 
L 40.634038 56.206011 
L 41.268075 55.587977 
L 40.391857 55.460655 
L 40 54.666667 
M 44 54.666667 
L 43.608143 55.460655 
L 42.731925 55.587977 
L 43.365962 56.206011 
L 43.216286 57.078689 
L 44 56.666667 
L 44.783714 57.078689 
L 44.634038 56.206011 
L 45.268075 55.587977 
L 44.391857 55.460655 
L 44 54.666667 
M 48 54.666667 
L 47.608143 55.460655 
L 46.731925 55.587977 
L 47.365962 56.206011 
L 47.216286 57.078689 
L 48 56.666667 
L 48.783714 57.078689 
L 48.634038 56.206011 
L 49.268075 55.587977 
L 48.391857 55.460655 
L 48 54.666667 
M 52 54.666667 
L 51.608143 55.460655 
L 50.731925 55.587977 
L 51.365962 56.206011 
L 51.216286 57.078689 
L 52 56.666667 
L 52.783714 57.078689 
L 52.634038 56.206011 
L 53.268075 55.587977 
L 52.391857 55.460655 
L 52 54.666667 
M 56 54.666667 
L 55.608143 55.460655 
L 54.731925 55.587977 
L 55.365962 56.206011 
L 55.216286 57.078689 
L 56 56.666667 
L 56.783714 57.078689 
L 56.634038 56.206011 
L 57.268075 55.587977 
L 56.391857 55.460655 
L 56 54.666667 
M 60 54.666667 
L 59.608143 55.460655 
L 58.731925 55.587977 
L 59.365962 56.206011 
L 59.216286 57.078689 
L 60 56.666667 
L 60.783714 57.078689 
L 60.634038 56.206011 
L 61.268075 55.587977 
L 60.391857 55.460655 
L 60 54.666667 
M 64 54.666667 
L 63.608143 55.460655 
L 62.731925 55.587977 
L 63.365962 56.206011 
L 63.216286 57.078689 
L 64 56.666667 
L 64.783714 57.078689 
L 64.634038 56.206011 
L 65.268075 55.587977 
L 64.391857 55.460655 
L 64 54.666667 
M 68 54.666667 
L 67.608143 55.460655 
L 66.731925 55.587977 
L 67.365962 56.206011 
L 67.216286 57.078689 
L 68 56.666667 
L 68.783714 57.078689 
L 68.634038 56.206011 
L 69.268075 55.587977 
L 68.391857 55.460655 
L 68 54.666667 
M 72 54.666667 
L 71.608143 55.460655 
L 70.731925 55.587977 
L 71.365962 56.206011 
L 71.216286 57.078689 
L 72 56.666667 
L 72.783714 57.078689 
L 72.634038 56.206011 
L 73.268075 55.587977 
L 72.391857 55.460655 
L 72 54.666667 
M 2 50.666667 
L 1.608143 51.460655 
L 0.731925 51.587977 
L 1.365962 52.206011 
L 1.216286 53.078689 
L 2 52.666667 
L 2.783714 53.078689 
L 2.634038 52.206011 
L 3.268075 51.587977 
L 2.391857 51.460655 
L 2 50.666667 
M 6 50.666667 
L 5.608143 51.460655 
L 4.731925 51.587977 
L 5.365962 52.206011 
L 5.216286 53.078689 
L 6 52.666667 
L 6.783714 53.078689 
L 6.634038 52.206011 
L 7.268075 51.587977 
L 6.391857 51.460655 
L 6 50.666667 
M 10 50.666667 
L 9.608143 51.460655 
L 8.731925 51.587977 
L 9.365962 52.206011 
L 9.216286 53.078689 
L 10 52.666667 
L 10.783714 53.078689 
L 10.634038 52.206011 
L 11.268075 51.587977 
L 10.391857 51.460655 
L 10 50.666667 
M 14 50.666667 
L 13.608143 51.460655 
L 12.731925 51.587977 
L 13.365962 52.206011 
L 13.216286 53.078689 
L 14 52.666667 
L 14.783714 53.078689 
L 14.634038 52.206011 
L 15.268075 51.587977 
L 14.391857 51.460655 
L 14 50.666667 
M 18 50.666667 
L 17.608143 51.460655 
L 16.731925 51.587977 
L 17.365962 52.206011 
L 17.216286 53.078689 
L 18 52.666667 
L 18.783714 53.078689 
L 18.634038 52.206011 
L 19.268075 51.587977 
L 18.391857 51.460655 
L 18 50.666667 
M 22 50.666667 
L 21.608143 51.460655 
L 20.731925 51.587977 
L 21.365962 52.206011 
L 21.216286 53.078689 
L 22 52.666667 
L 22.783714 53.078689 
L 22.634038 52.206011 
L 23.268075 51.587977 
L 22.391857 51.460655 
L 22 50.666667 
M 26 50.666667 
L 25.608143 51.460655 
L 24.731925 51.587977 
L 25.365962 52.206011 
L 25.216286 53.078689 
L 26 52.666667 
L 26.783714 53.078689 
L 26.634038 52.206011 
L 27.268075 51.587977 
L 26.391857 51.460655 
L 26 50.666667 
M 30 50.666667 
L 29.608143 51.460655 
L 28.731925 51.587977 
L 29.365962 52.206011 
L 29.216286 53.078689 
L 30 52.666667 
L 30.783714 53.078689 
L 30.634038 52.206011 
L 31.268075 51.587977 
L 30.391857 51.460655 
L 30 50.666667 
M 34 50.666667 
L 33.608143 51.460655 
L 32.731925 51.587977 
L 33.365962 52.206011 
L 33.216286 53.078689 
L 34 52.666667 
L 34.783714 53.078689 
L 34.634038 52.206011 
L 35.268075 51.587977 
L 34.391857 51.460655 
L 34 50.666667 
M 38 50.666667 
L 37.608143 51.460655 
L 36.731925 51.587977 
L 37.365962 52.206011 
L 37.216286 53.078689 
L 38 52.666667 
L 38.783714 53.078689 
L 38.634038 52.206011 
L 39.268075 51.587977 
L 38.391857 51.460655 
L 38 50.666667 
M 42 50.666667 
L 41.608143 51.460655 
L 40.731925 51.587977 
L 41.365962 52.206011 
L 41.216286 53.078689 
L 42 52.666667 
L 42.783714 53.078689 
L 42.634038 52.206011 
L 43.268075 51.587977 
L 42.391857 51.460655 
L 42 50.666667 
M 46 50.666667 
L 45.608143 51.460655 
L 44.731925 51.587977 
L 45.365962 52.206011 
L 45.216286 53.078689 
L 46 52.666667 
L 46.783714 53.078689 
L 46.634038 52.206011 
L 47.268075 51.587977 
L 46.391857 51.460655 
L 46 50.666667 
M 50 50.666667 
L 49.608143 51.460655 
L 48.731925 51.587977 
L 49.365962 52.206011 
L 49.216286 53.078689 
L 50 52.666667 
L 50.783714 53.078689 
L 50.634038 52.206011 
L 51.268075 51.587977 
L 50.391857 51.460655 
L 50 50.666667 
M 54 50.666667 
L 53.608143 51.460655 
L 52.731925 51.587977 
L 53.365962 52.206011 
L 53.216286 53.078689 
L 54 52.666667 
L 54.783714 53.078689 
L 54.634038 52.206011 
L 55.268075 51.587977 
L 54.391857 51.460655 
L 54 50.666667 
M 58 50.666667 
L 57.608143 51.460655 
L 56.731925 51.587977 
L 57.365962 52.206011 
L 57.216286 53.078689 
L 58 52.666667 
L 58.783714 53.078689 
L 58.634038 52.206011 
L 59.268075 51.587977 
L 58.391857 51.460655 
L 58 50.666667 
M 62 50.666667 
L 61.608143 51.460655 
L 60.731925 51.587977 
L 61.365962 52.206011 
L 61.216286 53.078689 
L 62 52.666667 
L 62.783714 53.078689 
L 62.634038 52.206011 
L 63.268075 51.587977 
L 62.391857 51.460655 
L 62 50.666667 
M 66 50.666667 
L 65.608143 51.460655 
L 64.731925 51.587977 
L 65.365962 52.206011 
L 65.216286 53.078689 
L 66 52.666667 
L 66.783714 53.078689 
L 66.634038 52.206011 
L 67.268075 51.587977 
L 66.391857 51.460655 
L 66 50.666667 
M 70 50.666667 
L 69.608143 51.460655 
L 68.731925 51.587977 
L 69.365962 52.206011 
L 69.216286 53.078689 
L 70 52.666667 
L 70.783714 53.078689 
L 70.634038 52.206011 
L 71.268075 51.587977 
L 70.391857 51.460655 
L 70 50.666667 
M 0 46.666667 
L -0.391857 47.460655 
L -1.268075 47.587977 
L -0.634038 48.206011 
L -0.783714 49.078689 
L -0 48.666667 
L 0.783714 49.078689 
L 0.634038 48.206011 
L 1.268075 47.587977 
L 0.391857 47.460655 
L 0 46.666667 
M 4 46.666667 
L 3.608143 47.460655 
L 2.731925 47.587977 
L 3.365962 48.206011 
L 3.216286 49.078689 
L 4 48.666667 
L 4.783714 49.078689 
L 4.634038 48.206011 
L 5.268075 47.587977 
L 4.391857 47.460655 
L 4 46.666667 
M 8 46.666667 
L 7.608143 47.460655 
L 6.731925 47.587977 
L 7.365962 48.206011 
L 7.216286 49.078689 
L 8 48.666667 
L 8.783714 49.078689 
L 8.634038 48.206011 
L 9.268075 47.587977 
L 8.391857 47.460655 
L 8 46.666667 
M 12 46.666667 
L 11.608143 47.460655 
L 10.731925 47.587977 
L 11.365962 48.206011 
L 11.216286 49.078689 
L 12 48.666667 
L 12.783714 49.078689 
L 12.634038 48.206011 
L 13.268075 47.587977 
L 12.391857 47.460655 
L 12 46.666667 
M 16 46.666667 
L 15.608143 47.460655 
L 14.731925 47.587977 
L 15.365962 48.206011 
L 15.216286 49.078689 
L 16 48.666667 
L 16.783714 49.078689 
L 16.634038 48.206011 
L 17.268075 47.587977 
L 16.391857 47.460655 
L 16 46.666667 
M 20 46.666667 
L 19.608143 47.460655 
L 18.731925 47.587977 
L 19.365962 48.206011 
L 19.216286 49.078689 
L 20 48.666667 
L 20.783714 49.078689 
L 20.634038 48.206011 
L 21.268075 47.587977 
L 20.391857 47.460655 
L 20 46.666667 
M 24 46.666667 
L 23.608143 47.460655 
L 22.731925 47.587977 
L 23.365962 48.206011 
L 23.216286 49.078689 
L 24 48.666667 
L 24.783714 49.078689 
L 24.634038 48.206011 
L 25.268075 47.587977 
L 24.391857 47.460655 
L 24 46.666667 
M 28 46.666667 
L 27.608143 47.460655 
L 26.731925 47.587977 
L 27.365962 48.206011 
L 27.216286 49.078689 
L 28 48.666667 
L 28.783714 49.078689 
L 28.634038 48.206011 
L 29.268075 47.587977 
L 28.391857 47.460655 
L 28 46.666667 
M 32 46.666667 
L 31.608143 47.460655 
L 30.731925 47.587977 
L 31.365962 48.206011 
L 31.216286 49.078689 
L 32 48.666667 
L 32.783714 49.078689 
L 32.634038 48.206011 
L 33.268075 47.587977 
L 32.391857 47.460655 
L 32 46.666667 
M 36 46.666667 
L 35.608143 47.460655 
L 34.731925 47.587977 
L 35.365962 48.206011 
L 35.216286 49.078689 
L 36 48.666667 
L 36.783714 49.078689 
L 36.634038 48.206011 
L 37.268075 47.587977 
L 36.391857 47.460655 
L 36 46.666667 
M 40 46.666667 
L 39.608143 47.460655 
L 38.731925 47.587977 
L 39.365962 48.206011 
L 39.216286 49.078689 
L 40 48.666667 
L 40.783714 49.078689 
L 40.634038 48.206011 
L 41.268075 47.587977 
L 40.391857 47.460655 
L 40 46.666667 
M 44 46.666667 
L 43.608143 47.460655 
L 42.731925 47.587977 
L 43.365962 48.206011 
L 43.216286 49.078689 
L 44 48.666667 
L 44.783714 49.078689 
L 44.634038 48.206011 
L 45.268075 47.587977 
L 44.391857 47.460655 
L 44 46.666667 
M 48 46.666667 
L 47.608143 47.460655 
L 46.731925 47.587977 
L 47.365962 48.206011 
L 47.216286 49.078689 
L 48 48.666667 
L 48.783714 49.078689 
L 48.634038 48.206011 
L 49.268075 47.587977 
L 48.391857 47.460655 
L 48 46.666667 
M 52 46.666667 
L 51.608143 47.460655 
L 50.731925 47.587977 
L 51.365962 48.206011 
L 51.216286 49.078689 
L 52 48.666667 
L 52.783714 49.078689 
L 52.634038 48.206011 
L 53.268075 47.587977 
L 52.391857 47.460655 
L 52 46.666667 
M 56 46.666667 
L 55.608143 47.460655 
L 54.731925 47.587977 
L 55.365962 48.206011 
L 55.216286 49.078689 
L 56 48.666667 
L 56.783714 49.078689 
L 56.634038 48.206011 
L 57.268075 47.587977 
L 56.391857 47.460655 
L 56 46.666667 
M 60 46.666667 
L 59.608143 47.460655 
L 58.731925 47.587977 
L 59.365962 48.206011 
L 59.216286 49.078689 
L 60 48.666667 
L 60.783714 49.078689 
L 60.634038 48.206011 
L 61.268075 47.587977 
L 60.391857 47.460655 
L 60 46.666667 
M 64 46.666667 
L 63.608143 47.460655 
L 62.731925 47.587977 
L 63.365962 48.206011 
L 63.216286 49.078689 
L 64 48.666667 
L 64.783714 49.078689 
L 64.634038 48.206011 
L 65.268075 47.587977 
L 64.391857 47.460655 
L 64 46.666667 
M 68 46.666667 
L 67.608143 47.460655 
L 66.731925 47.587977 
L 67.365962 48.206011 
L 67.216286 49.078689 
L 68 48.666667 
L 68.783714 49.078689 
L 68.634038 48.206011 
L 69.268075 47.587977 
L 68.391857 47.460655 
L 68 46.666667 
M 72 46.666667 
L 71.608143 47.460655 
L 70.731925 47.587977 
L 71.365962 48.206011 
L 71.216286 49.078689 
L 72 48.666667 
L 72.783714 49.078689 
L 72.634038 48.206011 
L 73.268075 47.587977 
L 72.391857 47.460655 
L 72 46.666667 
M 2 42.666667 
L 1.608143 43.460655 
L 0.731925 43.587977 
L 1.365962 44.206011 
L 1.216286 45.078689 
L 2 44.666667 
L 2.783714 45.078689 
L 2.634038 44.206011 
L 3.268075 43.587977 
L 2.391857 43.460655 
L 2 42.666667 
M 6 42.666667 
L 5.608143 43.460655 
L 4.731925 43.587977 
L 5.365962 44.206011 
L 5.216286 45.078689 
L 6 44.666667 
L 6.783714 45.078689 
L 6.634038 44.206011 
L 7.268075 43.587977 
L 6.391857 43.460655 
L 6 42.666667 
M 10 42.666667 
L 9.608143 43.460655 
L 8.731925 43.587977 
L 9.365962 44.206011 
L 9.216286 45.078689 
L 10 44.666667 
L 10.783714 45.078689 
L 10.634038 44.206011 
L 11.268075 43.587977 
L 10.391857 43.460655 
L 10 42.666667 
M 14 42.666667 
L 13.608143 43.460655 
L 12.731925 43.587977 
L 13.365962 44.206011 
L 13.216286 45.078689 
L 14 44.666667 
L 14.783714 45.078689 
L 14.634038 44.206011 
L 15.268075 43.587977 
L 14.391857 43.460655 
L 14 42.666667 
M 18 42.666667 
L 17.608143 43.460655 
L 16.731925 43.587977 
L 17.365962 44.206011 
L 17.216286 45.078689 
L 18 44.666667 
L 18.783714 45.078689 
L 18.634038 44.206011 
L 19.268075 43.587977 
L 18.391857 43.460655 
L 18 42.666667 
M 22 42.666667 
L 21.608143 43.460655 
L 20.731925 43.587977 
L 21.365962 44.206011 
L 21.216286 45.078689 
L 22 44.666667 
L 22.783714 45.078689 
L 22.634038 44.206011 
L 23.268075 43.587977 
L 22.391857 43.460655 
L 22 42.666667 
M 26 42.666667 
L 25.608143 43.460655 
L 24.731925 43.587977 
L 25.365962 44.206011 
L 25.216286 45.078689 
L 26 44.666667 
L 26.783714 45.078689 
L 26.634038 44.206011 
L 27.268075 43.587977 
L 26.391857 43.460655 
L 26 42.666667 
M 30 42.666667 
L 29.608143 43.460655 
L 28.731925 43.587977 
L 29.365962 44.206011 
L 29.216286 45.078689 
L 30 44.666667 
L 30.783714 45.078689 
L 30.634038 44.206011 
L 31.268075 43.587977 
L 30.391857 43.460655 
L 30 42.666667 
M 34 42.666667 
L 33.608143 43.460655 
L 32.731925 43.587977 
L 33.365962 44.206011 
L 33.216286 45.078689 
L 34 44.666667 
L 34.783714 45.078689 
L 34.634038 44.206011 
L 35.268075 43.587977 
L 34.391857 43.460655 
L 34 42.666667 
M 38 42.666667 
L 37.608143 43.460655 
L 36.731925 43.587977 
L 37.365962 44.206011 
L 37.216286 45.078689 
L 38 44.666667 
L 38.783714 45.078689 
L 38.634038 44.206011 
L 39.268075 43.587977 
L 38.391857 43.460655 
L 38 42.666667 
M 42 42.666667 
L 41.608143 43.460655 
L 40.731925 43.587977 
L 41.365962 44.206011 
L 41.216286 45.078689 
L 42 44.666667 
L 42.783714 45.078689 
L 42.634038 44.206011 
L 43.268075 43.587977 
L 42.391857 43.460655 
L 42 42.666667 
M 46 42.666667 
L 45.608143 43.460655 
L 44.731925 43.587977 
L 45.365962 44.206011 
L 45.216286 45.078689 
L 46 44.666667 
L 46.783714 45.078689 
L 46.634038 44.206011 
L 47.268075 43.587977 
L 46.391857 43.460655 
L 46 42.666667 
M 50 42.666667 
L 49.608143 43.460655 
L 48.731925 43.587977 
L 49.365962 44.206011 
L 49.216286 45.078689 
L 50 44.666667 
L 50.783714 45.078689 
L 50.634038 44.206011 
L 51.268075 43.587977 
L 50.391857 43.460655 
L 50 42.666667 
M 54 42.666667 
L 53.608143 43.460655 
L 52.731925 43.587977 
L 53.365962 44.206011 
L 53.216286 45.078689 
L 54 44.666667 
L 54.783714 45.078689 
L 54.634038 44.206011 
L 55.268075 43.587977 
L 54.391857 43.460655 
L 54 42.666667 
M 58 42.666667 
L 57.608143 43.460655 
L 56.731925 43.587977 
L 57.365962 44.206011 
L 57.216286 45.078689 
L 58 44.666667 
L 58.783714 45.078689 
L 58.634038 44.206011 
L 59.268075 43.587977 
L 58.391857 43.460655 
L 58 42.666667 
M 62 42.666667 
L 61.608143 43.460655 
L 60.731925 43.587977 
L 61.365962 44.206011 
L 61.216286 45.078689 
L 62 44.666667 
L 62.783714 45.078689 
L 62.634038 44.206011 
L 63.268075 43.587977 
L 62.391857 43.460655 
L 62 42.666667 
M 66 42.666667 
L 65.608143 43.460655 
L 64.731925 43.587977 
L 65.365962 44.206011 
L 65.216286 45.078689 
L 66 44.666667 
L 66.783714 45.078689 
L 66.634038 44.206011 
L 67.268075 43.587977 
L 66.391857 43.460655 
L 66 42.666667 
M 70 42.666667 
L 69.608143 43.460655 
L 68.731925 43.587977 
L 69.365962 44.206011 
L 69.216286 45.078689 
L 70 44.666667 
L 70.783714 45.078689 
L 70.634038 44.206011 
L 71.268075 43.587977 
L 70.391857 43.460655 
L 70 42.666667 
M 0 38.666667 
L -0.391857 39.460655 
L -1.268075 39.587977 
L -0.634038 40.206011 
L -0.783714 41.078689 
L -0 40.666667 
L 0.783714 41.078689 
L 0.634038 40.206011 
L 1.268075 39.587977 
L 0.391857 39.460655 
L 0 38.666667 
M 4 38.666667 
L 3.608143 39.460655 
L 2.731925 39.587977 
L 3.365962 40.206011 
L 3.216286 41.078689 
L 4 40.666667 
L 4.783714 41.078689 
L 4.634038 40.206011 
L 5.268075 39.587977 
L 4.391857 39.460655 
L 4 38.666667 
M 8 38.666667 
L 7.608143 39.460655 
L 6.731925 39.587977 
L 7.365962 40.206011 
L 7.216286 41.078689 
L 8 40.666667 
L 8.783714 41.078689 
L 8.634038 40.206011 
L 9.268075 39.587977 
L 8.391857 39.460655 
L 8 38.666667 
M 12 38.666667 
L 11.608143 39.460655 
L 10.731925 39.587977 
L 11.365962 40.206011 
L 11.216286 41.078689 
L 12 40.666667 
L 12.783714 41.078689 
L 12.634038 40.206011 
L 13.268075 39.587977 
L 12.391857 39.460655 
L 12 38.666667 
M 16 38.666667 
L 15.608143 39.460655 
L 14.731925 39.587977 
L 15.365962 40.206011 
L 15.216286 41.078689 
L 16 40.666667 
L 16.783714 41.078689 
L 16.634038 40.206011 
L 17.268075 39.587977 
L 16.391857 39.460655 
L 16 38.666667 
M 20 38.666667 
L 19.608143 39.460655 
L 18.731925 39.587977 
L 19.365962 40.206011 
L 19.216286 41.078689 
L 20 40.666667 
L 20.783714 41.078689 
L 20.634038 40.206011 
L 21.268075 39.587977 
L 20.391857 39.460655 
L 20 38.666667 
M 24 38.666667 
L 23.608143 39.460655 
L 22.731925 39.587977 
L 23.365962 40.206011 
L 23.216286 41.078689 
L 24 40.666667 
L 24.783714 41.078689 
L 24.634038 40.206011 
L 25.268075 39.587977 
L 24.391857 39.460655 
L 24 38.666667 
M 28 38.666667 
L 27.608143 39.460655 
L 26.731925 39.587977 
L 27.365962 40.206011 
L 27.216286 41.078689 
L 28 40.666667 
L 28.783714 41.078689 
L 28.634038 40.206011 
L 29.268075 39.587977 
L 28.391857 39.460655 
L 28 38.666667 
M 32 38.666667 
L 31.608143 39.460655 
L 30.731925 39.587977 
L 31.365962 40.206011 
L 31.216286 41.078689 
L 32 40.666667 
L 32.783714 41.078689 
L 32.634038 40.206011 
L 33.268075 39.587977 
L 32.391857 39.460655 
L 32 38.666667 
M 36 38.666667 
L 35.608143 39.460655 
L 34.731925 39.587977 
L 35.365962 40.206011 
L 35.216286 41.078689 
L 36 40.666667 
L 36.783714 41.078689 
L 36.634038 40.206011 
L 37.268075 39.587977 
L 36.391857 39.460655 
L 36 38.666667 
M 40 38.666667 
L 39.608143 39.460655 
L 38.731925 39.587977 
L 39.365962 40.206011 
L 39.216286 41.078689 
L 40 40.666667 
L 40.783714 41.078689 
L 40.634038 40.206011 
L 41.268075 39.587977 
L 40.391857 39.460655 
L 40 38.666667 
M 44 38.666667 
L 43.608143 39.460655 
L 42.731925 39.587977 
L 43.365962 40.206011 
L 43.216286 41.078689 
L 44 40.666667 
L 44.783714 41.078689 
L 44.634038 40.206011 
L 45.268075 39.587977 
L 44.391857 39.460655 
L 44 38.666667 
M 48 38.666667 
L 47.608143 39.460655 
L 46.731925 39.587977 
L 47.365962 40.206011 
L 47.216286 41.078689 
L 48 40.666667 
L 48.783714 41.078689 
L 48.634038 40.206011 
L 49.268075 39.587977 
L 48.391857 39.460655 
L 48 38.666667 
M 52 38.666667 
L 51.608143 39.460655 
L 50.731925 39.587977 
L 51.365962 40.206011 
L 51.216286 41.078689 
L 52 40.666667 
L 52.783714 41.078689 
L 52.634038 40.206011 
L 53.268075 39.587977 
L 52.391857 39.460655 
L 52 38.666667 
M 56 38.666667 
L 55.608143 39.460655 
L 54.731925 39.587977 
L 55.365962 40.206011 
L 55.216286 41.078689 
L 56 40.666667 
L 56.783714 41.078689 
L 56.634038 40.206011 
L 57.268075 39.587977 
L 56.391857 39.460655 
L 56 38.666667 
M 60 38.666667 
L 59.608143 39.460655 
L 58.731925 39.587977 
L 59.365962 40.206011 
L 59.216286 41.078689 
L 60 40.666667 
L 60.783714 41.078689 
L 60.634038 40.206011 
L 61.268075 39.587977 
L 60.391857 39.460655 
L 60 38.666667 
M 64 38.666667 
L 63.608143 39.460655 
L 62.731925 39.587977 
L 63.365962 40.206011 
L 63.216286 41.078689 
L 64 40.666667 
L 64.783714 41.078689 
L 64.634038 40.206011 
L 65.268075 39.587977 
L 64.391857 39.460655 
L 64 38.666667 
M 68 38.666667 
L 67.608143 39.460655 
L 66.731925 39.587977 
L 67.365962 40.206011 
L 67.216286 41.078689 
L 68 40.666667 
L 68.783714 41.078689 
L 68.634038 40.206011 
L 69.268075 39.587977 
L 68.391857 39.460655 
L 68 38.666667 
M 72 38.666667 
L 71.608143 39.460655 
L 70.731925 39.587977 
L 71.365962 40.206011 
L 71.216286 41.078689 
L 72 40.666667 
L 72.783714 41.078689 
L 72.634038 40.206011 
L 73.268075 39.587977 
L 72.391857 39.460655 
L 72 38.666667 
M 2 34.666667 
L 1.608143 35.460655 
L 0.731925 35.587977 
L 1.365962 36.206011 
L 1.216286 37.078689 
L 2 36.666667 
L 2.783714 37.078689 
L 2.634038 36.206011 
L 3.268075 35.587977 
L 2.391857 35.460655 
L 2 34.666667 
M 6 34.666667 
L 5.608143 35.460655 
L 4.731925 35.587977 
L 5.365962 36.206011 
L 5.216286 37.078689 
L 6 36.666667 
L 6.783714 37.078689 
L 6.634038 36.206011 
L 7.268075 35.587977 
L 6.391857 35.460655 
L 6 34.666667 
M 10 34.666667 
L 9.608143 35.460655 
L 8.731925 35.587977 
L 9.365962 36.206011 
L 9.216286 37.078689 
L 10 36.666667 
L 10.783714 37.078689 
L 10.634038 36.206011 
L 11.268075 35.587977 
L 10.391857 35.460655 
L 10 34.666667 
M 14 34.666667 
L 13.608143 35.460655 
L 12.731925 35.587977 
L 13.365962 36.206011 
L 13.216286 37.078689 
L 14 36.666667 
L 14.783714 37.078689 
L 14.634038 36.206011 
L 15.268075 35.587977 
L 14.391857 35.460655 
L 14 34.666667 
M 18 34.666667 
L 17.608143 35.460655 
L 16.731925 35.587977 
L 17.365962 36.206011 
L 17.216286 37.078689 
L 18 36.666667 
L 18.783714 37.078689 
L 18.634038 36.206011 
L 19.268075 35.587977 
L 18.391857 35.460655 
L 18 34.666667 
M 22 34.666667 
L 21.608143 35.460655 
L 20.731925 35.587977 
L 21.365962 36.206011 
L 21.216286 37.078689 
L 22 36.666667 
L 22.783714 37.078689 
L 22.634038 36.206011 
L 23.268075 35.587977 
L 22.391857 35.460655 
L 22 34.666667 
M 26 34.666667 
L 25.608143 35.460655 
L 24.731925 35.587977 
L 25.365962 36.206011 
L 25.216286 37.078689 
L 26 36.666667 
L 26.783714 37.078689 
L 26.634038 36.206011 
L 27.268075 35.587977 
L 26.391857 35.460655 
L 26 34.666667 
M 30 34.666667 
L 29.608143 35.460655 
L 28.731925 35.587977 
L 29.365962 36.206011 
L 29.216286 37.078689 
L 30 36.666667 
L 30.783714 37.078689 
L 30.634038 36.206011 
L 31.268075 35.587977 
L 30.391857 35.460655 
L 30 34.666667 
M 34 34.666667 
L 33.608143 35.460655 
L 32.731925 35.587977 
L 33.365962 36.206011 
L 33.216286 37.078689 
L 34 36.666667 
L 34.783714 37.078689 
L 34.634038 36.206011 
L 35.268075 35.587977 
L 34.391857 35.460655 
L 34 34.666667 
M 38 34.666667 
L 37.608143 35.460655 
L 36.731925 35.587977 
L 37.365962 36.206011 
L 37.216286 37.078689 
L 38 36.666667 
L 38.783714 37.078689 
L 38.634038 36.206011 
L 39.268075 35.587977 
L 38.391857 35.460655 
L 38 34.666667 
M 42 34.666667 
L 41.608143 35.460655 
L 40.731925 35.587977 
L 41.365962 36.206011 
L 41.216286 37.078689 
L 42 36.666667 
L 42.783714 37.078689 
L 42.634038 36.206011 
L 43.268075 35.587977 
L 42.391857 35.460655 
L 42 34.666667 
M 46 34.666667 
L 45.608143 35.460655 
L 44.731925 35.587977 
L 45.365962 36.206011 
L 45.216286 37.078689 
L 46 36.666667 
L 46.783714 37.078689 
L 46.634038 36.206011 
L 47.268075 35.587977 
L 46.391857 35.460655 
L 46 34.666667 
M 50 34.666667 
L 49.608143 35.460655 
L 48.731925 35.587977 
L 49.365962 36.206011 
L 49.216286 37.078689 
L 50 36.666667 
L 50.783714 37.078689 
L 50.634038 36.206011 
L 51.268075 35.587977 
L 50.391857 35.460655 
L 50 34.666667 
M 54 34.666667 
L 53.608143 35.460655 
L 52.731925 35.587977 
L 53.365962 36.206011 
L 53.216286 37.078689 
L 54 36.666667 
L 54.783714 37.078689 
L 54.634038 36.206011 
L 55.268075 35.587977 
L 54.391857 35.460655 
L 54 34.666667 
M 58 34.666667 
L 57.608143 35.460655 
L 56.731925 35.587977 
L 57.365962 36.206011 
L 57.216286 37.078689 
L 58 36.666667 
L 58.783714 37.078689 
L 58.634038 36.206011 
L 59.268075 35.587977 
L 58.391857 35.460655 
L 58 34.666667 
M 62 34.666667 
L 61.608143 35.460655 
L 60.731925 35.587977 
L 61.365962 36.206011 
L 61.216286 37.078689 
L 62 36.666667 
L 62.783714 37.078689 
L 62.634038 36.206011 
L 63.268075 35.587977 
L 62.391857 35.460655 
L 62 34.666667 
M 66 34.666667 
L 65.608143 35.460655 
L 64.731925 35.587977 
L 65.365962 36.206011 
L 65.216286 37.078689 
L 66 36.666667 
L 66.783714 37.078689 
L 66.634038 36.206011 
L 67.268075 35.587977 
L 66.391857 35.460655 
L 66 34.666667 
M 70 34.666667 
L 69.608143 35.460655 
L 68.731925 35.587977 
L 69.365962 36.206011 
L 69.216286 37.078689 
L 70 36.666667 
L 70.783714 37.078689 
L 70.634038 36.206011 
L 71.268075 35.587977 
L 70.391857 35.460655 
L 70 34.666667 
M 0 30.666667 
L -0.391857 31.460655 
L -1.268075 31.587977 
L -0.634038 32.206011 
L -0.783714 33.078689 
L -0 32.666667 
L 0.783714 33.078689 
L 0.634038 32.206011 
L 1.268075 31.587977 
L 0.391857 31.460655 
L 0 30.666667 
M 4 30.666667 
L 3.608143 31.460655 
L 2.731925 31.587977 
L 3.365962 32.206011 
L 3.216286 33.078689 
L 4 32.666667 
L 4.783714 33.078689 
L 4.634038 32.206011 
L 5.268075 31.587977 
L 4.391857 31.460655 
L 4 30.666667 
M 8 30.666667 
L 7.608143 31.460655 
L 6.731925 31.587977 
L 7.365962 32.206011 
L 7.216286 33.078689 
L 8 32.666667 
L 8.783714 33.078689 
L 8.634038 32.206011 
L 9.268075 31.587977 
L 8.391857 31.460655 
L 8 30.666667 
M 12 30.666667 
L 11.608143 31.460655 
L 10.731925 31.587977 
L 11.365962 32.206011 
L 11.216286 33.078689 
L 12 32.666667 
L 12.783714 33.078689 
L 12.634038 32.206011 
L 13.268075 31.587977 
L 12.391857 31.460655 
L 12 30.666667 
M 16 30.666667 
L 15.608143 31.460655 
L 14.731925 31.587977 
L 15.365962 32.206011 
L 15.216286 33.078689 
L 16 32.666667 
L 16.783714 33.078689 
L 16.634038 32.206011 
L 17.268075 31.587977 
L 16.391857 31.460655 
L 16 30.666667 
M 20 30.666667 
L 19.608143 31.460655 
L 18.731925 31.587977 
L 19.365962 32.206011 
L 19.216286 33.078689 
L 20 32.666667 
L 20.783714 33.078689 
L 20.634038 32.206011 
L 21.268075 31.587977 
L 20.391857 31.460655 
L 20 30.666667 
M 24 30.666667 
L 23.608143 31.460655 
L 22.731925 31.587977 
L 23.365962 32.206011 
L 23.216286 33.078689 
L 24 32.666667 
L 24.783714 33.078689 
L 24.634038 32.206011 
L 25.268075 31.587977 
L 24.391857 31.460655 
L 24 30.666667 
M 28 30.666667 
L 27.608143 31.460655 
L 26.731925 31.587977 
L 27.365962 32.206011 
L 27.216286 33.078689 
L 28 32.666667 
L 28.783714 33.078689 
L 28.634038 32.206011 
L 29.268075 31.587977 
L 28.391857 31.460655 
L 28 30.666667 
M 32 30.666667 
L 31.608143 31.460655 
L 30.731925 31.587977 
L 31.365962 32.206011 
L 31.216286 33.078689 
L 32 32.666667 
L 32.783714 33.078689 
L 32.634038 32.206011 
L 33.268075 31.587977 
L 32.391857 31.460655 
L 32 30.666667 
M 36 30.666667 
L 35.608143 31.460655 
L 34.731925 31.587977 
L 35.365962 32.206011 
L 35.216286 33.078689 
L 36 32.666667 
L 36.783714 33.078689 
L 36.634038 32.206011 
L 37.268075 31.587977 
L 36.391857 31.460655 
L 36 30.666667 
M 40 30.666667 
L 39.608143 31.460655 
L 38.731925 31.587977 
L 39.365962 32.206011 
L 39.216286 33.078689 
L 40 32.666667 
L 40.783714 33.078689 
L 40.634038 32.206011 
L 41.268075 31.587977 
L 40.391857 31.460655 
L 40 30.666667 
M 44 30.666667 
L 43.608143 31.460655 
L 42.731925 31.587977 
L 43.365962 32.206011 
L 43.216286 33.078689 
L 44 32.666667 
L 44.783714 33.078689 
L 44.634038 32.206011 
L 45.268075 31.587977 
L 44.391857 31.460655 
L 44 30.666667 
M 48 30.666667 
L 47.608143 31.460655 
L 46.731925 31.587977 
L 47.365962 32.206011 
L 47.216286 33.078689 
L 48 32.666667 
L 48.783714 33.078689 
L 48.634038 32.206011 
L 49.268075 31.587977 
L 48.391857 31.460655 
L 48 30.666667 
M 52 30.666667 
L 51.608143 31.460655 
L 50.731925 31.587977 
L 51.365962 32.206011 
L 51.216286 33.078689 
L 52 32.666667 
L 52.783714 33.078689 
L 52.634038 32.206011 
L 53.268075 31.587977 
L 52.391857 31.460655 
L 52 30.666667 
M 56 30.666667 
L 55.608143 31.460655 
L 54.731925 31.587977 
L 55.365962 32.206011 
L 55.216286 33.078689 
L 56 32.666667 
L 56.783714 33.078689 
L 56.634038 32.206011 
L 57.268075 31.587977 
L 56.391857 31.460655 
L 56 30.666667 
M 60 30.666667 
L 59.608143 31.460655 
L 58.731925 31.587977 
L 59.365962 32.206011 
L 59.216286 33.078689 
L 60 32.666667 
L 60.783714 33.078689 
L 60.634038 32.206011 
L 61.268075 31.587977 
L 60.391857 31.460655 
L 60 30.666667 
M 64 30.666667 
L 63.608143 31.460655 
L 62.731925 31.587977 
L 63.365962 32.206011 
L 63.216286 33.078689 
L 64 32.666667 
L 64.783714 33.078689 
L 64.634038 32.206011 
L 65.268075 31.587977 
L 64.391857 31.460655 
L 64 30.666667 
M 68 30.666667 
L 67.608143 31.460655 
L 66.731925 31.587977 
L 67.365962 32.206011 
L 67.216286 33.078689 
L 68 32.666667 
L 68.783714 33.078689 
L 68.634038 32.206011 
L 69.268075 31.587977 
L 68.391857 31.460655 
L 68 30.666667 
M 72 30.666667 
L 71.608143 31.460655 
L 70.731925 31.587977 
L 71.365962 32.206011 
L 71.216286 33.078689 
L 72 32.666667 
L 72.783714 33.078689 
L 72.634038 32.206011 
L 73.268075 31.587977 
L 72.391857 31.460655 
L 72 30.666667 
M 2 26.666667 
L 1.608143 27.460655 
L 0.731925 27.587977 
L 1.365962 28.206011 
L 1.216286 29.078689 
L 2 28.666667 
L 2.783714 29.078689 
L 2.634038 28.206011 
L 3.268075 27.587977 
L 2.391857 27.460655 
L 2 26.666667 
M 6 26.666667 
L 5.608143 27.460655 
L 4.731925 27.587977 
L 5.365962 28.206011 
L 5.216286 29.078689 
L 6 28.666667 
L 6.783714 29.078689 
L 6.634038 28.206011 
L 7.268075 27.587977 
L 6.391857 27.460655 
L 6 26.666667 
M 10 26.666667 
L 9.608143 27.460655 
L 8.731925 27.587977 
L 9.365962 28.206011 
L 9.216286 29.078689 
L 10 28.666667 
L 10.783714 29.078689 
L 10.634038 28.206011 
L 11.268075 27.587977 
L 10.391857 27.460655 
L 10 26.666667 
M 14 26.666667 
L 13.608143 27.460655 
L 12.731925 27.587977 
L 13.365962 28.206011 
L 13.216286 29.078689 
L 14 28.666667 
L 14.783714 29.078689 
L 14.634038 28.206011 
L 15.268075 27.587977 
L 14.391857 27.460655 
L 14 26.666667 
M 18 26.666667 
L 17.608143 27.460655 
L 16.731925 27.587977 
L 17.365962 28.206011 
L 17.216286 29.078689 
L 18 28.666667 
L 18.783714 29.078689 
L 18.634038 28.206011 
L 19.268075 27.587977 
L 18.391857 27.460655 
L 18 26.666667 
M 22 26.666667 
L 21.608143 27.460655 
L 20.731925 27.587977 
L 21.365962 28.206011 
L 21.216286 29.078689 
L 22 28.666667 
L 22.783714 29.078689 
L 22.634038 28.206011 
L 23.268075 27.587977 
L 22.391857 27.460655 
L 22 26.666667 
M 26 26.666667 
L 25.608143 27.460655 
L 24.731925 27.587977 
L 25.365962 28.206011 
L 25.216286 29.078689 
L 26 28.666667 
L 26.783714 29.078689 
L 26.634038 28.206011 
L 27.268075 27.587977 
L 26.391857 27.460655 
L 26 26.666667 
M 30 26.666667 
L 29.608143 27.460655 
L 28.731925 27.587977 
L 29.365962 28.206011 
L 29.216286 29.078689 
L 30 28.666667 
L 30.783714 29.078689 
L 30.634038 28.206011 
L 31.268075 27.587977 
L 30.391857 27.460655 
L 30 26.666667 
M 34 26.666667 
L 33.608143 27.460655 
L 32.731925 27.587977 
L 33.365962 28.206011 
L 33.216286 29.078689 
L 34 28.666667 
L 34.783714 29.078689 
L 34.634038 28.206011 
L 35.268075 27.587977 
L 34.391857 27.460655 
L 34 26.666667 
M 38 26.666667 
L 37.608143 27.460655 
L 36.731925 27.587977 
L 37.365962 28.206011 
L 37.216286 29.078689 
L 38 28.666667 
L 38.783714 29.078689 
L 38.634038 28.206011 
L 39.268075 27.587977 
L 38.391857 27.460655 
L 38 26.666667 
M 42 26.666667 
L 41.608143 27.460655 
L 40.731925 27.587977 
L 41.365962 28.206011 
L 41.216286 29.078689 
L 42 28.666667 
L 42.783714 29.078689 
L 42.634038 28.206011 
L 43.268075 27.587977 
L 42.391857 27.460655 
L 42 26.666667 
M 46 26.666667 
L 45.608143 27.460655 
L 44.731925 27.587977 
L 45.365962 28.206011 
L 45.216286 29.078689 
L 46 28.666667 
L 46.783714 29.078689 
L 46.634038 28.206011 
L 47.268075 27.587977 
L 46.391857 27.460655 
L 46 26.666667 
M 50 26.666667 
L 49.608143 27.460655 
L 48.731925 27.587977 
L 49.365962 28.206011 
L 49.216286 29.078689 
L 50 28.666667 
L 50.783714 29.078689 
L 50.634038 28.206011 
L 51.268075 27.587977 
L 50.391857 27.460655 
L 50 26.666667 
M 54 26.666667 
L 53.608143 27.460655 
L 52.731925 27.587977 
L 53.365962 28.206011 
L 53.216286 29.078689 
L 54 28.666667 
L 54.783714 29.078689 
L 54.634038 28.206011 
L 55.268075 27.587977 
L 54.391857 27.460655 
L 54 26.666667 
M 58 26.666667 
L 57.608143 27.460655 
L 56.731925 27.587977 
L 57.365962 28.206011 
L 57.216286 29.078689 
L 58 28.666667 
L 58.783714 29.078689 
L 58.634038 28.206011 
L 59.268075 27.587977 
L 58.391857 27.460655 
L 58 26.666667 
M 62 26.666667 
L 61.608143 27.460655 
L 60.731925 27.587977 
L 61.365962 28.206011 
L 61.216286 29.078689 
L 62 28.666667 
L 62.783714 29.078689 
L 62.634038 28.206011 
L 63.268075 27.587977 
L 62.391857 27.460655 
L 62 26.666667 
M 66 26.666667 
L 65.608143 27.460655 
L 64.731925 27.587977 
L 65.365962 28.206011 
L 65.216286 29.078689 
L 66 28.666667 
L 66.783714 29.078689 
L 66.634038 28.206011 
L 67.268075 27.587977 
L 66.391857 27.460655 
L 66 26.666667 
M 70 26.666667 
L 69.608143 27.460655 
L 68.731925 27.587977 
L 69.365962 28.206011 
L 69.216286 29.078689 
L 70 28.666667 
L 70.783714 29.078689 
L 70.634038 28.206011 
L 71.268075 27.587977 
L 70.391857 27.460655 
L 70 26.666667 
M 0 22.666667 
L -0.391857 23.460655 
L -1.268075 23.587977 
L -0.634038 24.206011 
L -0.783714 25.078689 
L -0 24.666667 
L 0.783714 25.078689 
L 0.634038 24.206011 
L 1.268075 23.587977 
L 0.391857 23.460655 
L 0 22.666667 
M 4 22.666667 
L 3.608143 23.460655 
L 2.731925 23.587977 
L 3.365962 24.206011 
L 3.216286 25.078689 
L 4 24.666667 
L 4.783714 25.078689 
L 4.634038 24.206011 
L 5.268075 23.587977 
L 4.391857 23.460655 
L 4 22.666667 
M 8 22.666667 
L 7.608143 23.460655 
L 6.731925 23.587977 
L 7.365962 24.206011 
L 7.216286 25.078689 
L 8 24.666667 
L 8.783714 25.078689 
L 8.634038 24.206011 
L 9.268075 23.587977 
L 8.391857 23.460655 
L 8 22.666667 
M 12 22.666667 
L 11.608143 23.460655 
L 10.731925 23.587977 
L 11.365962 24.206011 
L 11.216286 25.078689 
L 12 24.666667 
L 12.783714 25.078689 
L 12.634038 24.206011 
L 13.268075 23.587977 
L 12.391857 23.460655 
L 12 22.666667 
M 16 22.666667 
L 15.608143 23.460655 
L 14.731925 23.587977 
L 15.365962 24.206011 
L 15.216286 25.078689 
L 16 24.666667 
L 16.783714 25.078689 
L 16.634038 24.206011 
L 17.268075 23.587977 
L 16.391857 23.460655 
L 16 22.666667 
M 20 22.666667 
L 19.608143 23.460655 
L 18.731925 23.587977 
L 19.365962 24.206011 
L 19.216286 25.078689 
L 20 24.666667 
L 20.783714 25.078689 
L 20.634038 24.206011 
L 21.268075 23.587977 
L 20.391857 23.460655 
L 20 22.666667 
M 24 22.666667 
L 23.608143 23.460655 
L 22.731925 23.587977 
L 23.365962 24.206011 
L 23.216286 25.078689 
L 24 24.666667 
L 24.783714 25.078689 
L 24.634038 24.206011 
L 25.268075 23.587977 
L 24.391857 23.460655 
L 24 22.666667 
M 28 22.666667 
L 27.608143 23.460655 
L 26.731925 23.587977 
L 27.365962 24.206011 
L 27.216286 25.078689 
L 28 24.666667 
L 28.783714 25.078689 
L 28.634038 24.206011 
L 29.268075 23.587977 
L 28.391857 23.460655 
L 28 22.666667 
M 32 22.666667 
L 31.608143 23.460655 
L 30.731925 23.587977 
L 31.365962 24.206011 
L 31.216286 25.078689 
L 32 24.666667 
L 32.783714 25.078689 
L 32.634038 24.206011 
L 33.268075 23.587977 
L 32.391857 23.460655 
L 32 22.666667 
M 36 22.666667 
L 35.608143 23.460655 
L 34.731925 23.587977 
L 35.365962 24.206011 
L 35.216286 25.078689 
L 36 24.666667 
L 36.783714 25.078689 
L 36.634038 24.206011 
L 37.268075 23.587977 
L 36.391857 23.460655 
L 36 22.666667 
M 40 22.666667 
L 39.608143 23.460655 
L 38.731925 23.587977 
L 39.365962 24.206011 
L 39.216286 25.078689 
L 40 24.666667 
L 40.783714 25.078689 
L 40.634038 24.206011 
L 41.268075 23.587977 
L 40.391857 23.460655 
L 40 22.666667 
M 44 22.666667 
L 43.608143 23.460655 
L 42.731925 23.587977 
L 43.365962 24.206011 
L 43.216286 25.078689 
L 44 24.666667 
L 44.783714 25.078689 
L 44.634038 24.206011 
L 45.268075 23.587977 
L 44.391857 23.460655 
L 44 22.666667 
M 48 22.666667 
L 47.608143 23.460655 
L 46.731925 23.587977 
L 47.365962 24.206011 
L 47.216286 25.078689 
L 48 24.666667 
L 48.783714 25.078689 
L 48.634038 24.206011 
L 49.268075 23.587977 
L 48.391857 23.460655 
L 48 22.666667 
M 52 22.666667 
L 51.608143 23.460655 
L 50.731925 23.587977 
L 51.365962 24.206011 
L 51.216286 25.078689 
L 52 24.666667 
L 52.783714 25.078689 
L 52.634038 24.206011 
L 53.268075 23.587977 
L 52.391857 23.460655 
L 52 22.666667 
M 56 22.666667 
L 55.608143 23.460655 
L 54.731925 23.587977 
L 55.365962 24.206011 
L 55.216286 25.078689 
L 56 24.666667 
L 56.783714 25.078689 
L 56.634038 24.206011 
L 57.268075 23.587977 
L 56.391857 23.460655 
L 56 22.666667 
M 60 22.666667 
L 59.608143 23.460655 
L 58.731925 23.587977 
L 59.365962 24.206011 
L 59.216286 25.078689 
L 60 24.666667 
L 60.783714 25.078689 
L 60.634038 24.206011 
L 61.268075 23.587977 
L 60.391857 23.460655 
L 60 22.666667 
M 64 22.666667 
L 63.608143 23.460655 
L 62.731925 23.587977 
L 63.365962 24.206011 
L 63.216286 25.078689 
L 64 24.666667 
L 64.783714 25.078689 
L 64.634038 24.206011 
L 65.268075 23.587977 
L 64.391857 23.460655 
L 64 22.666667 
M 68 22.666667 
L 67.608143 23.460655 
L 66.731925 23.587977 
L 67.365962 24.206011 
L 67.216286 25.078689 
L 68 24.666667 
L 68.783714 25.078689 
L 68.634038 24.206011 
L 69.268075 23.587977 
L 68.391857 23.460655 
L 68 22.666667 
M 72 22.666667 
L 71.608143 23.460655 
L 70.731925 23.587977 
L 71.365962 24.206011 
L 71.216286 25.078689 
L 72 24.666667 
L 72.783714 25.078689 
L 72.634038 24.206011 
L 73.268075 23.587977 
L 72.391857 23.460655 
L 72 22.666667 
M 2 18.666667 
L 1.608143 19.460655 
L 0.731925 19.587977 
L 1.365962 20.206011 
L 1.216286 21.078689 
L 2 20.666667 
L 2.783714 21.078689 
L 2.634038 20.206011 
L 3.268075 19.587977 
L 2.391857 19.460655 
L 2 18.666667 
M 6 18.666667 
L 5.608143 19.460655 
L 4.731925 19.587977 
L 5.365962 20.206011 
L 5.216286 21.078689 
L 6 20.666667 
L 6.783714 21.078689 
L 6.634038 20.206011 
L 7.268075 19.587977 
L 6.391857 19.460655 
L 6 18.666667 
M 10 18.666667 
L 9.608143 19.460655 
L 8.731925 19.587977 
L 9.365962 20.206011 
L 9.216286 21.078689 
L 10 20.666667 
L 10.783714 21.078689 
L 10.634038 20.206011 
L 11.268075 19.587977 
L 10.391857 19.460655 
L 10 18.666667 
M 14 18.666667 
L 13.608143 19.460655 
L 12.731925 19.587977 
L 13.365962 20.206011 
L 13.216286 21.078689 
L 14 20.666667 
L 14.783714 21.078689 
L 14.634038 20.206011 
L 15.268075 19.587977 
L 14.391857 19.460655 
L 14 18.666667 
M 18 18.666667 
L 17.608143 19.460655 
L 16.731925 19.587977 
L 17.365962 20.206011 
L 17.216286 21.078689 
L 18 20.666667 
L 18.783714 21.078689 
L 18.634038 20.206011 
L 19.268075 19.587977 
L 18.391857 19.460655 
L 18 18.666667 
M 22 18.666667 
L 21.608143 19.460655 
L 20.731925 19.587977 
L 21.365962 20.206011 
L 21.216286 21.078689 
L 22 20.666667 
L 22.783714 21.078689 
L 22.634038 20.206011 
L 23.268075 19.587977 
L 22.391857 19.460655 
L 22 18.666667 
M 26 18.666667 
L 25.608143 19.460655 
L 24.731925 19.587977 
L 25.365962 20.206011 
L 25.216286 21.078689 
L 26 20.666667 
L 26.783714 21.078689 
L 26.634038 20.206011 
L 27.268075 19.587977 
L 26.391857 19.460655 
L 26 18.666667 
M 30 18.666667 
L 29.608143 19.460655 
L 28.731925 19.587977 
L 29.365962 20.206011 
L 29.216286 21.078689 
L 30 20.666667 
L 30.783714 21.078689 
L 30.634038 20.206011 
L 31.268075 19.587977 
L 30.391857 19.460655 
L 30 18.666667 
M 34 18.666667 
L 33.608143 19.460655 
L 32.731925 19.587977 
L 33.365962 20.206011 
L 33.216286 21.078689 
L 34 20.666667 
L 34.783714 21.078689 
L 34.634038 20.206011 
L 35.268075 19.587977 
L 34.391857 19.460655 
L 34 18.666667 
M 38 18.666667 
L 37.608143 19.460655 
L 36.731925 19.587977 
L 37.365962 20.206011 
L 37.216286 21.078689 
L 38 20.666667 
L 38.783714 21.078689 
L 38.634038 20.206011 
L 39.268075 19.587977 
L 38.391857 19.460655 
L 38 18.666667 
M 42 18.666667 
L 41.608143 19.460655 
L 40.731925 19.587977 
L 41.365962 20.206011 
L 41.216286 21.078689 
L 42 20.666667 
L 42.783714 21.078689 
L 42.634038 20.206011 
L 43.268075 19.587977 
L 42.391857 19.460655 
L 42 18.666667 
M 46 18.666667 
L 45.608143 19.460655 
L 44.731925 19.587977 
L 45.365962 20.206011 
L 45.216286 21.078689 
L 46 20.666667 
L 46.783714 21.078689 
L 46.634038 20.206011 
L 47.268075 19.587977 
L 46.391857 19.460655 
L 46 18.666667 
M 50 18.666667 
L 49.608143 19.460655 
L 48.731925 19.587977 
L 49.365962 20.206011 
L 49.216286 21.078689 
L 50 20.666667 
L 50.783714 21.078689 
L 50.634038 20.206011 
L 51.268075 19.587977 
L 50.391857 19.460655 
L 50 18.666667 
M 54 18.666667 
L 53.608143 19.460655 
L 52.731925 19.587977 
L 53.365962 20.206011 
L 53.216286 21.078689 
L 54 20.666667 
L 54.783714 21.078689 
L 54.634038 20.206011 
L 55.268075 19.587977 
L 54.391857 19.460655 
L 54 18.666667 
M 58 18.666667 
L 57.608143 19.460655 
L 56.731925 19.587977 
L 57.365962 20.206011 
L 57.216286 21.078689 
L 58 20.666667 
L 58.783714 21.078689 
L 58.634038 20.206011 
L 59.268075 19.587977 
L 58.391857 19.460655 
L 58 18.666667 
M 62 18.666667 
L 61.608143 19.460655 
L 60.731925 19.587977 
L 61.365962 20.206011 
L 61.216286 21.078689 
L 62 20.666667 
L 62.783714 21.078689 
L 62.634038 20.206011 
L 63.268075 19.587977 
L 62.391857 19.460655 
L 62 18.666667 
M 66 18.666667 
L 65.608143 19.460655 
L 64.731925 19.587977 
L 65.365962 20.206011 
L 65.216286 21.078689 
L 66 20.666667 
L 66.783714 21.078689 
L 66.634038 20.206011 
L 67.268075 19.587977 
L 66.391857 19.460655 
L 66 18.666667 
M 70 18.666667 
L 69.608143 19.460655 
L 68.731925 19.587977 
L 69.365962 20.206011 
L 69.216286 21.078689 
L 70 20.666667 
L 70.783714 21.078689 
L 70.634038 20.206011 
L 71.268075 19.587977 
L 70.391857 19.460655 
L 70 18.666667 
M 0 14.666667 
L -0.391857 15.460655 
L -1.268075 15.587977 
L -0.634038 16.206011 
L -0.783714 17.078689 
L -0 16.666667 
L 0.783714 17.078689 
L 0.634038 16.206011 
L 1.268075 15.587977 
L 0.391857 15.460655 
L 0 14.666667 
M 4 14.666667 
L 3.608143 15.460655 
L 2.731925 15.587977 
L 3.365962 16.206011 
L 3.216286 17.078689 
L 4 16.666667 
L 4.783714 17.078689 
L 4.634038 16.206011 
L 5.268075 15.587977 
L 4.391857 15.460655 
L 4 14.666667 
M 8 14.666667 
L 7.608143 15.460655 
L 6.731925 15.587977 
L 7.365962 16.206011 
L 7.216286 17.078689 
L 8 16.666667 
L 8.783714 17.078689 
L 8.634038 16.206011 
L 9.268075 15.587977 
L 8.391857 15.460655 
L 8 14.666667 
M 12 14.666667 
L 11.608143 15.460655 
L 10.731925 15.587977 
L 11.365962 16.206011 
L 11.216286 17.078689 
L 12 16.666667 
L 12.783714 17.078689 
L 12.634038 16.206011 
L 13.268075 15.587977 
L 12.391857 15.460655 
L 12 14.666667 
M 16 14.666667 
L 15.608143 15.460655 
L 14.731925 15.587977 
L 15.365962 16.206011 
L 15.216286 17.078689 
L 16 16.666667 
L 16.783714 17.078689 
L 16.634038 16.206011 
L 17.268075 15.587977 
L 16.391857 15.460655 
L 16 14.666667 
M 20 14.666667 
L 19.608143 15.460655 
L 18.731925 15.587977 
L 19.365962 16.206011 
L 19.216286 17.078689 
L 20 16.666667 
L 20.783714 17.078689 
L 20.634038 16.206011 
L 21.268075 15.587977 
L 20.391857 15.460655 
L 20 14.666667 
M 24 14.666667 
L 23.608143 15.460655 
L 22.731925 15.587977 
L 23.365962 16.206011 
L 23.216286 17.078689 
L 24 16.666667 
L 24.783714 17.078689 
L 24.634038 16.206011 
L 25.268075 15.587977 
L 24.391857 15.460655 
L 24 14.666667 
M 28 14.666667 
L 27.608143 15.460655 
L 26.731925 15.587977 
L 27.365962 16.206011 
L 27.216286 17.078689 
L 28 16.666667 
L 28.783714 17.078689 
L 28.634038 16.206011 
L 29.268075 15.587977 
L 28.391857 15.460655 
L 28 14.666667 
M 32 14.666667 
L 31.608143 15.460655 
L 30.731925 15.587977 
L 31.365962 16.206011 
L 31.216286 17.078689 
L 32 16.666667 
L 32.783714 17.078689 
L 32.634038 16.206011 
L 33.268075 15.587977 
L 32.391857 15.460655 
L 32 14.666667 
M 36 14.666667 
L 35.608143 15.460655 
L 34.731925 15.587977 
L 35.365962 16.206011 
L 35.216286 17.078689 
L 36 16.666667 
L 36.783714 17.078689 
L 36.634038 16.206011 
L 37.268075 15.587977 
L 36.391857 15.460655 
L 36 14.666667 
M 40 14.666667 
L 39.608143 15.460655 
L 38.731925 15.587977 
L 39.365962 16.206011 
L 39.216286 17.078689 
L 40 16.666667 
L 40.783714 17.078689 
L 40.634038 16.206011 
L 41.268075 15.587977 
L 40.391857 15.460655 
L 40 14.666667 
M 44 14.666667 
L 43.608143 15.460655 
L 42.731925 15.587977 
L 43.365962 16.206011 
L 43.216286 17.078689 
L 44 16.666667 
L 44.783714 17.078689 
L 44.634038 16.206011 
L 45.268075 15.587977 
L 44.391857 15.460655 
L 44 14.666667 
M 48 14.666667 
L 47.608143 15.460655 
L 46.731925 15.587977 
L 47.365962 16.206011 
L 47.216286 17.078689 
L 48 16.666667 
L 48.783714 17.078689 
L 48.634038 16.206011 
L 49.268075 15.587977 
L 48.391857 15.460655 
L 48 14.666667 
M 52 14.666667 
L 51.608143 15.460655 
L 50.731925 15.587977 
L 51.365962 16.206011 
L 51.216286 17.078689 
L 52 16.666667 
L 52.783714 17.078689 
L 52.634038 16.206011 
L 53.268075 15.587977 
L 52.391857 15.460655 
L 52 14.666667 
M 56 14.666667 
L 55.608143 15.460655 
L 54.731925 15.587977 
L 55.365962 16.206011 
L 55.216286 17.078689 
L 56 16.666667 
L 56.783714 17.078689 
L 56.634038 16.206011 
L 57.268075 15.587977 
L 56.391857 15.460655 
L 56 14.666667 
M 60 14.666667 
L 59.608143 15.460655 
L 58.731925 15.587977 
L 59.365962 16.206011 
L 59.216286 17.078689 
L 60 16.666667 
L 60.783714 17.078689 
L 60.634038 16.206011 
L 61.268075 15.587977 
L 60.391857 15.460655 
L 60 14.666667 
M 64 14.666667 
L 63.608143 15.460655 
L 62.731925 15.587977 
L 63.365962 16.206011 
L 63.216286 17.078689 
L 64 16.666667 
L 64.783714 17.078689 
L 64.634038 16.206011 
L 65.268075 15.587977 
L 64.391857 15.460655 
L 64 14.666667 
M 68 14.666667 
L 67.608143 15.460655 
L 66.731925 15.587977 
L 67.365962 16.206011 
L 67.216286 17.078689 
L 68 16.666667 
L 68.783714 17.078689 
L 68.634038 16.206011 
L 69.268075 15.587977 
L 68.391857 15.460655 
L 68 14.666667 
M 72 14.666667 
L 71.608143 15.460655 
L 70.731925 15.587977 
L 71.365962 16.206011 
L 71.216286 17.078689 
L 72 16.666667 
L 72.783714 17.078689 
L 72.634038 16.206011 
L 73.268075 15.587977 
L 72.391857 15.460655 
L 72 14.666667 
M 2 10.666667 
L 1.608143 11.460655 
L 0.731925 11.587977 
L 1.365962 12.206011 
L 1.216286 13.078689 
L 2 12.666667 
L 2.783714 13.078689 
L 2.634038 12.206011 
L 3.268075 11.587977 
L 2.391857 11.460655 
L 2 10.666667 
M 6 10.666667 
L 5.608143 11.460655 
L 4.731925 11.587977 
L 5.365962 12.206011 
L 5.216286 13.078689 
L 6 12.666667 
L 6.783714 13.078689 
L 6.634038 12.206011 
L 7.268075 11.587977 
L 6.391857 11.460655 
L 6 10.666667 
M 10 10.666667 
L 9.608143 11.460655 
L 8.731925 11.587977 
L 9.365962 12.206011 
L 9.216286 13.078689 
L 10 12.666667 
L 10.783714 13.078689 
L 10.634038 12.206011 
L 11.268075 11.587977 
L 10.391857 11.460655 
L 10 10.666667 
M 14 10.666667 
L 13.608143 11.460655 
L 12.731925 11.587977 
L 13.365962 12.206011 
L 13.216286 13.078689 
L 14 12.666667 
L 14.783714 13.078689 
L 14.634038 12.206011 
L 15.268075 11.587977 
L 14.391857 11.460655 
L 14 10.666667 
M 18 10.666667 
L 17.608143 11.460655 
L 16.731925 11.587977 
L 17.365962 12.206011 
L 17.216286 13.078689 
L 18 12.666667 
L 18.783714 13.078689 
L 18.634038 12.206011 
L 19.268075 11.587977 
L 18.391857 11.460655 
L 18 10.666667 
M 22 10.666667 
L 21.608143 11.460655 
L 20.731925 11.587977 
L 21.365962 12.206011 
L 21.216286 13.078689 
L 22 12.666667 
L 22.783714 13.078689 
L 22.634038 12.206011 
L 23.268075 11.587977 
L 22.391857 11.460655 
L 22 10.666667 
M 26 10.666667 
L 25.608143 11.460655 
L 24.731925 11.587977 
L 25.365962 12.206011 
L 25.216286 13.078689 
L 26 12.666667 
L 26.783714 13.078689 
L 26.634038 12.206011 
L 27.268075 11.587977 
L 26.391857 11.460655 
L 26 10.666667 
M 30 10.666667 
L 29.608143 11.460655 
L 28.731925 11.587977 
L 29.365962 12.206011 
L 29.216286 13.078689 
L 30 12.666667 
L 30.783714 13.078689 
L 30.634038 12.206011 
L 31.268075 11.587977 
L 30.391857 11.460655 
L 30 10.666667 
M 34 10.666667 
L 33.608143 11.460655 
L 32.731925 11.587977 
L 33.365962 12.206011 
L 33.216286 13.078689 
L 34 12.666667 
L 34.783714 13.078689 
L 34.634038 12.206011 
L 35.268075 11.587977 
L 34.391857 11.460655 
L 34 10.666667 
M 38 10.666667 
L 37.608143 11.460655 
L 36.731925 11.587977 
L 37.365962 12.206011 
L 37.216286 13.078689 
L 38 12.666667 
L 38.783714 13.078689 
L 38.634038 12.206011 
L 39.268075 11.587977 
L 38.391857 11.460655 
L 38 10.666667 
M 42 10.666667 
L 41.608143 11.460655 
L 40.731925 11.587977 
L 41.365962 12.206011 
L 41.216286 13.078689 
L 42 12.666667 
L 42.783714 13.078689 
L 42.634038 12.206011 
L 43.268075 11.587977 
L 42.391857 11.460655 
L 42 10.666667 
M 46 10.666667 
L 45.608143 11.460655 
L 44.731925 11.587977 
L 45.365962 12.206011 
L 45.216286 13.078689 
L 46 12.666667 
L 46.783714 13.078689 
L 46.634038 12.206011 
L 47.268075 11.587977 
L 46.391857 11.460655 
L 46 10.666667 
M 50 10.666667 
L 49.608143 11.460655 
L 48.731925 11.587977 
L 49.365962 12.206011 
L 49.216286 13.078689 
L 50 12.666667 
L 50.783714 13.078689 
L 50.634038 12.206011 
L 51.268075 11.587977 
L 50.391857 11.460655 
L 50 10.666667 
M 54 10.666667 
L 53.608143 11.460655 
L 52.731925 11.587977 
L 53.365962 12.206011 
L 53.216286 13.078689 
L 54 12.666667 
L 54.783714 13.078689 
L 54.634038 12.206011 
L 55.268075 11.587977 
L 54.391857 11.460655 
L 54 10.666667 
M 58 10.666667 
L 57.608143 11.460655 
L 56.731925 11.587977 
L 57.365962 12.206011 
L 57.216286 13.078689 
L 58 12.666667 
L 58.783714 13.078689 
L 58.634038 12.206011 
L 59.268075 11.587977 
L 58.391857 11.460655 
L 58 10.666667 
M 62 10.666667 
L 61.608143 11.460655 
L 60.731925 11.587977 
L 61.365962 12.206011 
L 61.216286 13.078689 
L 62 12.666667 
L 62.783714 13.078689 
L 62.634038 12.206011 
L 63.268075 11.587977 
L 62.391857 11.460655 
L 62 10.666667 
M 66 10.666667 
L 65.608143 11.460655 
L 64.731925 11.587977 
L 65.365962 12.206011 
L 65.216286 13.078689 
L 66 12.666667 
L 66.783714 13.078689 
L 66.634038 12.206011 
L 67.268075 11.587977 
L 66.391857 11.460655 
L 66 10.666667 
M 70 10.666667 
L 69.608143 11.460655 
L 68.731925 11.587977 
L 69.365962 12.206011 
L 69.216286 13.078689 
L 70 12.666667 
L 70.783714 13.078689 
L 70.634038 12.206011 
L 71.268075 11.587977 
L 70.391857 11.460655 
L 70 10.666667 
M 0 6.666667 
L -0.391857 7.460655 
L -1.268075 7.587977 
L -0.634038 8.206011 
L -0.783714 9.078689 
L -0 8.666667 
L 0.783714 9.078689 
L 0.634038 8.206011 
L 1.268075 7.587977 
L 0.391857 7.460655 
L 0 6.666667 
M 4 6.666667 
L 3.608143 7.460655 
L 2.731925 7.587977 
L 3.365962 8.206011 
L 3.216286 9.078689 
L 4 8.666667 
L 4.783714 9.078689 
L 4.634038 8.206011 
L 5.268075 7.587977 
L 4.391857 7.460655 
L 4 6.666667 
M 8 6.666667 
L 7.608143 7.460655 
L 6.731925 7.587977 
L 7.365962 8.206011 
L 7.216286 9.078689 
L 8 8.666667 
L 8.783714 9.078689 
L 8.634038 8.206011 
L 9.268075 7.587977 
L 8.391857 7.460655 
L 8 6.666667 
M 12 6.666667 
L 11.608143 7.460655 
L 10.731925 7.587977 
L 11.365962 8.206011 
L 11.216286 9.078689 
L 12 8.666667 
L 12.783714 9.078689 
L 12.634038 8.206011 
L 13.268075 7.587977 
L 12.391857 7.460655 
L 12 6.666667 
M 16 6.666667 
L 15.608143 7.460655 
L 14.731925 7.587977 
L 15.365962 8.206011 
L 15.216286 9.078689 
L 16 8.666667 
L 16.783714 9.078689 
L 16.634038 8.206011 
L 17.268075 7.587977 
L 16.391857 7.460655 
L 16 6.666667 
M 20 6.666667 
L 19.608143 7.460655 
L 18.731925 7.587977 
L 19.365962 8.206011 
L 19.216286 9.078689 
L 20 8.666667 
L 20.783714 9.078689 
L 20.634038 8.206011 
L 21.268075 7.587977 
L 20.391857 7.460655 
L 20 6.666667 
M 24 6.666667 
L 23.608143 7.460655 
L 22.731925 7.587977 
L 23.365962 8.206011 
L 23.216286 9.078689 
L 24 8.666667 
L 24.783714 9.078689 
L 24.634038 8.206011 
L 25.268075 7.587977 
L 24.391857 7.460655 
L 24 6.666667 
M 28 6.666667 
L 27.608143 7.460655 
L 26.731925 7.587977 
L 27.365962 8.206011 
L 27.216286 9.078689 
L 28 8.666667 
L 28.783714 9.078689 
L 28.634038 8.206011 
L 29.268075 7.587977 
L 28.391857 7.460655 
L 28 6.666667 
M 32 6.666667 
L 31.608143 7.460655 
L 30.731925 7.587977 
L 31.365962 8.206011 
L 31.216286 9.078689 
L 32 8.666667 
L 32.783714 9.078689 
L 32.634038 8.206011 
L 33.268075 7.587977 
L 32.391857 7.460655 
L 32 6.666667 
M 36 6.666667 
L 35.608143 7.460655 
L 34.731925 7.587977 
L 35.365962 8.206011 
L 35.216286 9.078689 
L 36 8.666667 
L 36.783714 9.078689 
L 36.634038 8.206011 
L 37.268075 7.587977 
L 36.391857 7.460655 
L 36 6.666667 
M 40 6.666667 
L 39.608143 7.460655 
L 38.731925 7.587977 
L 39.365962 8.206011 
L 39.216286 9.078689 
L 40 8.666667 
L 40.783714 9.078689 
L 40.634038 8.206011 
L 41.268075 7.587977 
L 40.391857 7.460655 
L 40 6.666667 
M 44 6.666667 
L 43.608143 7.460655 
L 42.731925 7.587977 
L 43.365962 8.206011 
L 43.216286 9.078689 
L 44 8.666667 
L 44.783714 9.078689 
L 44.634038 8.206011 
L 45.268075 7.587977 
L 44.391857 7.460655 
L 44 6.666667 
M 48 6.666667 
L 47.608143 7.460655 
L 46.731925 7.587977 
L 47.365962 8.206011 
L 47.216286 9.078689 
L 48 8.666667 
L 48.783714 9.078689 
L 48.634038 8.206011 
L 49.268075 7.587977 
L 48.391857 7.460655 
L 48 6.666667 
M 52 6.666667 
L 51.608143 7.460655 
L 50.731925 7.587977 
L 51.365962 8.206011 
L 51.216286 9.078689 
L 52 8.666667 
L 52.783714 9.078689 
L 52.634038 8.206011 
L 53.268075 7.587977 
L 52.391857 7.460655 
L 52 6.666667 
M 56 6.666667 
L 55.608143 7.460655 
L 54.731925 7.587977 
L 55.365962 8.206011 
L 55.216286 9.078689 
L 56 8.666667 
L 56.783714 9.078689 
L 56.634038 8.206011 
L 57.268075 7.587977 
L 56.391857 7.460655 
L 56 6.666667 
M 60 6.666667 
L 59.608143 7.460655 
L 58.731925 7.587977 
L 59.365962 8.206011 
L 59.216286 9.078689 
L 60 8.666667 
L 60.783714 9.078689 
L 60.634038 8.206011 
L 61.268075 7.587977 
L 60.391857 7.460655 
L 60 6.666667 
M 64 6.666667 
L 63.608143 7.460655 
L 62.731925 7.587977 
L 63.365962 8.206011 
L 63.216286 9.078689 
L 64 8.666667 
L 64.783714 9.078689 
L 64.634038 8.206011 
L 65.268075 7.587977 
L 64.391857 7.460655 
L 64 6.666667 
M 68 6.666667 
L 67.608143 7.460655 
L 66.731925 7.587977 
L 67.365962 8.206011 
L 67.216286 9.078689 
L 68 8.666667 
L 68.783714 9.078689 
L 68.634038 8.206011 
L 69.268075 7.587977 
L 68.391857 7.460655 
L 68 6.666667 
M 72 6.666667 
L 71.608143 7.460655 
L 70.731925 7.587977 
L 71.365962 8.206011 
L 71.216286 9.078689 
L 72 8.666667 
L 72.783714 9.078689 
L 72.634038 8.206011 
L 73.268075 7.587977 
L 72.391857 7.460655 
L 72 6.666667 
M 2 2.666667 
L 1.608143 3.460655 
L 0.731925 3.587977 
L 1.365962 4.206011 
L 1.216286 5.078689 
L 2 4.666667 
L 2.783714 5.078689 
L 2.634038 4.206011 
L 3.268075 3.587977 
L 2.391857 3.460655 
L 2 2.666667 
M 6 2.666667 
L 5.608143 3.460655 
L 4.731925 3.587977 
L 5.365962 4.206011 
L 5.216286 5.078689 
L 6 4.666667 
L 6.783714 5.078689 
L 6.634038 4.206011 
L 7.268075 3.587977 
L 6.391857 3.460655 
L 6 2.666667 
M 10 2.666667 
L 9.608143 3.460655 
L 8.731925 3.587977 
L 9.365962 4.206011 
L 9.216286 5.078689 
L 10 4.666667 
L 10.783714 5.078689 
L 10.634038 4.206011 
L 11.268075 3.587977 
L 10.391857 3.460655 
L 10 2.666667 
M 14 2.666667 
L 13.608143 3.460655 
L 12.731925 3.587977 
L 13.365962 4.206011 
L 13.216286 5.078689 
L 14 4.666667 
L 14.783714 5.078689 
L 14.634038 4.206011 
L 15.268075 3.587977 
L 14.391857 3.460655 
L 14 2.666667 
M 18 2.666667 
L 17.608143 3.460655 
L 16.731925 3.587977 
L 17.365962 4.206011 
L 17.216286 5.078689 
L 18 4.666667 
L 18.783714 5.078689 
L 18.634038 4.206011 
L 19.268075 3.587977 
L 18.391857 3.460655 
L 18 2.666667 
M 22 2.666667 
L 21.608143 3.460655 
L 20.731925 3.587977 
L 21.365962 4.206011 
L 21.216286 5.078689 
L 22 4.666667 
L 22.783714 5.078689 
L 22.634038 4.206011 
L 23.268075 3.587977 
L 22.391857 3.460655 
L 22 2.666667 
M 26 2.666667 
L 25.608143 3.460655 
L 24.731925 3.587977 
L 25.365962 4.206011 
L 25.216286 5.078689 
L 26 4.666667 
L 26.783714 5.078689 
L 26.634038 4.206011 
L 27.268075 3.587977 
L 26.391857 3.460655 
L 26 2.666667 
M 30 2.666667 
L 29.608143 3.460655 
L 28.731925 3.587977 
L 29.365962 4.206011 
L 29.216286 5.078689 
L 30 4.666667 
L 30.783714 5.078689 
L 30.634038 4.206011 
L 31.268075 3.587977 
L 30.391857 3.460655 
L 30 2.666667 
M 34 2.666667 
L 33.608143 3.460655 
L 32.731925 3.587977 
L 33.365962 4.206011 
L 33.216286 5.078689 
L 34 4.666667 
L 34.783714 5.078689 
L 34.634038 4.206011 
L 35.268075 3.587977 
L 34.391857 3.460655 
L 34 2.666667 
M 38 2.666667 
L 37.608143 3.460655 
L 36.731925 3.587977 
L 37.365962 4.206011 
L 37.216286 5.078689 
L 38 4.666667 
L 38.783714 5.078689 
L 38.634038 4.206011 
L 39.268075 3.587977 
L 38.391857 3.460655 
L 38 2.666667 
M 42 2.666667 
L 41.608143 3.460655 
L 40.731925 3.587977 
L 41.365962 4.206011 
L 41.216286 5.078689 
L 42 4.666667 
L 42.783714 5.078689 
L 42.634038 4.206011 
L 43.268075 3.587977 
L 42.391857 3.460655 
L 42 2.666667 
M 46 2.666667 
L 45.608143 3.460655 
L 44.731925 3.587977 
L 45.365962 4.206011 
L 45.216286 5.078689 
L 46 4.666667 
L 46.783714 5.078689 
L 46.634038 4.206011 
L 47.268075 3.587977 
L 46.391857 3.460655 
L 46 2.666667 
M 50 2.666667 
L 49.608143 3.460655 
L 48.731925 3.587977 
L 49.365962 4.206011 
L 49.216286 5.078689 
L 50 4.666667 
L 50.783714 5.078689 
L 50.634038 4.206011 
L 51.268075 3.587977 
L 50.391857 3.460655 
L 50 2.666667 
M 54 2.666667 
L 53.608143 3.460655 
L 52.731925 3.587977 
L 53.365962 4.206011 
L 53.216286 5.078689 
L 54 4.666667 
L 54.783714 5.078689 
L 54.634038 4.206011 
L 55.268075 3.587977 
L 54.391857 3.460655 
L 54 2.666667 
M 58 2.666667 
L 57.608143 3.460655 
L 56.731925 3.587977 
L 57.365962 4.206011 
L 57.216286 5.078689 
L 58 4.666667 
L 58.783714 5.078689 
L 58.634038 4.206011 
L 59.268075 3.587977 
L 58.391857 3.460655 
L 58 2.666667 
M 62 2.666667 
L 61.608143 3.460655 
L 60.731925 3.587977 
L 61.365962 4.206011 
L 61.216286 5.078689 
L 62 4.666667 
L 62.783714 5.078689 
L 62.634038 4.206011 
L 63.268075 3.587977 
L 62.391857 3.460655 
L 62 2.666667 
M 66 2.666667 
L 65.608143 3.460655 
L 64.731925 3.587977 
L 65.365962 4.206011 
L 65.216286 5.078689 
L 66 4.666667 
L 66.783714 5.078689 
L 66.634038 4.206011 
L 67.268075 3.587977 
L 66.391857 3.460655 
L 66 2.666667 
M 70 2.666667 
L 69.608143 3.460655 
L 68.731925 3.587977 
L 69.365962 4.206011 
L 69.216286 5.078689 
L 70 4.666667 
L 70.783714 5.078689 
L 70.634038 4.206011 
L 71.268075 3.587977 
L 70.391857 3.460655 
L 70 2.666667 
M 0 -1.333333 
L -0.391857 -0.539345 
L -1.268075 -0.412023 
L -0.634038 0.206011 
L -0.783714 1.078689 
L -0 0.666667 
L 0.783714 1.078689 
L 0.634038 0.206011 
L 1.268075 -0.412023 
L 0.391857 -0.539345 
L 0 -1.333333 
M 4 -1.333333 
L 3.608143 -0.539345 
L 2.731925 -0.412023 
L 3.365962 0.206011 
L 3.216286 1.078689 
L 4 0.666667 
L 4.783714 1.078689 
L 4.634038 0.206011 
L 5.268075 -0.412023 
L 4.391857 -0.539345 
L 4 -1.333333 
M 8 -1.333333 
L 7.608143 -0.539345 
L 6.731925 -0.412023 
L 7.365962 0.206011 
L 7.216286 1.078689 
L 8 0.666667 
L 8.783714 1.078689 
L 8.634038 0.206011 
L 9.268075 -0.412023 
L 8.391857 -0.539345 
L 8 -1.333333 
M 12 -1.333333 
L 11.608143 -0.539345 
L 10.731925 -0.412023 
L 11.365962 0.206011 
L 11.216286 1.078689 
L 12 0.666667 
L 12.783714 1.078689 
L 12.634038 0.206011 
L 13.268075 -0.412023 
L 12.391857 -0.539345 
L 12 -1.333333 
M 16 -1.333333 
L 15.608143 -0.539345 
L 14.731925 -0.412023 
L 15.365962 0.206011 
L 15.216286 1.078689 
L 16 0.666667 
L 16.783714 1.078689 
L 16.634038 0.206011 
L 17.268075 -0.412023 
L 16.391857 -0.539345 
L 16 -1.333333 
M 20 -1.333333 
L 19.608143 -0.539345 
L 18.731925 -0.412023 
L 19.365962 0.206011 
L 19.216286 1.078689 
L 20 0.666667 
L 20.783714 1.078689 
L 20.634038 0.206011 
L 21.268075 -0.412023 
L 20.391857 -0.539345 
L 20 -1.333333 
M 24 -1.333333 
L 23.608143 -0.539345 
L 22.731925 -0.412023 
L 23.365962 0.206011 
L 23.216286 1.078689 
L 24 0.666667 
L 24.783714 1.078689 
L 24.634038 0.206011 
L 25.268075 -0.412023 
L 24.391857 -0.539345 
L 24 -1.333333 
M 28 -1.333333 
L 27.608143 -0.539345 
L 26.731925 -0.412023 
L 27.365962 0.206011 
L 27.216286 1.078689 
L 28 0.666667 
L 28.783714 1.078689 
L 28.634038 0.206011 
L 29.268075 -0.412023 
L 28.391857 -0.539345 
L 28 -1.333333 
M 32 -1.333333 
L 31.608143 -0.539345 
L 30.731925 -0.412023 
L 31.365962 0.206011 
L 31.216286 1.078689 
L 32 0.666667 
L 32.783714 1.078689 
L 32.634038 0.206011 
L 33.268075 -0.412023 
L 32.391857 -0.539345 
L 32 -1.333333 
M 36 -1.333333 
L 35.608143 -0.539345 
L 34.731925 -0.412023 
L 35.365962 0.206011 
L 35.216286 1.078689 
L 36 0.666667 
L 36.783714 1.078689 
L 36.634038 0.206011 
L 37.268075 -0.412023 
L 36.391857 -0.539345 
L 36 -1.333333 
M 40 -1.333333 
L 39.608143 -0.539345 
L 38.731925 -0.412023 
L 39.365962 0.206011 
L 39.216286 1.078689 
L 40 0.666667 
L 40.783714 1.078689 
L 40.634038 0.206011 
L 41.268075 -0.412023 
L 40.391857 -0.539345 
L 40 -1.333333 
M 44 -1.333333 
L 43.608143 -0.539345 
L 42.731925 -0.412023 
L 43.365962 0.206011 
L 43.216286 1.078689 
L 44 0.666667 
L 44.783714 1.078689 
L 44.634038 0.206011 
L 45.268075 -0.412023 
L 44.391857 -0.539345 
L 44 -1.333333 
M 48 -1.333333 
L 47.608143 -0.539345 
L 46.731925 -0.412023 
L 47.365962 0.206011 
L 47.216286 1.078689 
L 48 0.666667 
L 48.783714 1.078689 
L 48.634038 0.206011 
L 49.268075 -0.412023 
L 48.391857 -0.539345 
L 48 -1.333333 
M 52 -1.333333 
L 51.608143 -0.539345 
L 50.731925 -0.412023 
L 51.365962 0.206011 
L 51.216286 1.078689 
L 52 0.666667 
L 52.783714 1.078689 
L 52.634038 0.206011 
L 53.268075 -0.412023 
L 52.391857 -0.539345 
L 52 -1.333333 
M 56 -1.333333 
L 55.608143 -0.539345 
L 54.731925 -0.412023 
L 55.365962 0.206011 
L 55.216286 1.078689 
L 56 0.666667 
L 56.783714 1.078689 
L 56.634038 0.206011 
L 57.268075 -0.412023 
L 56.391857 -0.539345 
L 56 -1.333333 
M 60 -1.333333 
L 59.608143 -0.539345 
L 58.731925 -0.412023 
L 59.365962 0.206011 
L 59.216286 1.078689 
L 60 0.666667 
L 60.783714 1.078689 
L 60.634038 0.206011 
L 61.268075 -0.412023 
L 60.391857 -0.539345 
L 60 -1.333333 
M 64 -1.333333 
L 63.608143 -0.539345 
L 62.731925 -0.412023 
L 63.365962 0.206011 
L 63.216286 1.078689 
L 64 0.666667 
L 64.783714 1.078689 
L 64.634038 0.206011 
L 65.268075 -0.412023 
L 64.391857 -0.539345 
L 64 -1.333333 
M 68 -1.333333 
L 67.608143 -0.539345 
L 66.731925 -0.412023 
L 67.365962 0.206011 
L 67.216286 1.078689 
L 68 0.666667 
L 68.783714 1.078689 
L 68.634038 0.206011 
L 69.268075 -0.412023 
L 68.391857 -0.539345 
L 68 -1.333333 
M 72 -1.333333 
L 71.608143 -0.539345 
L 70.731925 -0.412023 
L 71.365962 0.206011 
L 71.216286 1.078689 
L 72 0.666667 
L 72.783714 1.078689 
L 72.634038 0.206011 
L 73.268075 -0.412023 
L 72.391857 -0.539345 
L 72 -1.333333 
" style="fill:#ff0000;stroke:#ff0000;stroke-linecap:butt;stroke-linejoin:miter;stroke-width:1.0;"/>
  </pattern>
  <pattern height="72" id="h7bd31e6727" patternUnits="userSpaceOnUse" width="72" x="0" y="0">
   <rect fill="#ffffff" height="73" width="73" x="0" y="0"/>
   <path d="M -36 36 
L 36 -36 
M -32 40 
L 40 -32 
M -28 44 
L 44 -28 
M -24 48 
L 48 -24 
M -20 52 
L 52 -20 
M -16 56 
L 56 -16 
M -12 60 
L 60 -12 
M -8 64 
L 64 -8 
M -4 68 
L 68 -4 
M 0 72 
L 72 0 
M 4 76 
L 76 4 
M 8 80 
L 80 8 
M 12 84 
L 84 12 
M 16 88 
L 88 16 
M 20 92 
L 92 20 
M 24 96 
L 96 24 
M 28 100 
L 100 28 
M 32 104 
L 104 32 
M 36 108 
L 108 36 
" style="fill:#008000;stroke:#008000;stroke-linecap:butt;stroke-linejoin:miter;stroke-width:1.0;"/>
  </pattern>
 </defs>
</svg>
